<?xml version="1.0" encoding="UTF-8" standalone="no"?>
<svg
   xmlns:dc="http://purl.org/dc/elements/1.1/"
   xmlns:cc="http://creativecommons.org/ns#"
   xmlns:rdf="http://www.w3.org/1999/02/22-rdf-syntax-ns#"
   xmlns:svg="http://www.w3.org/2000/svg"
   xmlns="http://www.w3.org/2000/svg"
   viewBox="0 0 559.17334 559.17334"
   height="559.17334"
   width="559.17334"
   xml:space="preserve"
   id="svg2"
   version="1.1"><metadata
     id="metadata8"><rdf:RDF><cc:Work
         rdf:about=""><dc:format>image/svg+xml</dc:format><dc:type
           rdf:resource="http://purl.org/dc/dcmitype/StillImage" /></cc:Work></rdf:RDF></metadata><defs
     id="defs6" /><g
     transform="matrix(1.3333333,0,0,-1.3333333,0,559.17333)"
     id="g10"><g
       transform="scale(0.1)"
       id="g12"><path
         id="path14"
         style="fill:#100f0d;fill-opacity:1;fill-rule:nonzero;stroke:none"
         d="M 4193.79,2096.9 C 4193.79,938.809 3254.98,0 2096.89,0 938.809,0 0,938.809 0,2096.9 c 0,1158.08 938.809,2096.89 2096.89,2096.89 1158.09,0 2096.9,-938.81 2096.9,-2096.89" /><path
         id="path16"
         style="fill:#ffffff;fill-opacity:1;fill-rule:nonzero;stroke:none"
         d="m 1930.51,2435.4 c -7.48,2.9 -15.35,7.47 -21.17,13.7 -8.71,5.39 -19.52,5.81 -28.25,10.79 l -1.23,-1.66 c -0.84,-13.7 1.66,-28.65 -0.84,-41.52 -0.82,-4.57 4.57,-3.74 6.23,-6.23 14.54,2.91 26.57,11.63 40.28,16.2 l 5.82,3.73 c 1.23,1.25 0.82,3.74 -0.84,4.99 z m 62.28,-152.8 c -9.14,-4.15 -21.17,-5.81 -30.72,-1.24 -3.75,2.9 -4.16,7.47 -5.82,11.62 -4.98,8.31 -12.03,14.54 -19.1,21.18 -6.23,0.83 -5.39,8.3 -8.71,12.04 -5.82,7.47 -11.62,12.87 -19.1,19.51 -6.64,8.72 -14.95,17.86 -25.75,19.52 -1.25,-10.38 -0.84,-21.18 -0.41,-31.56 1.66,-23.25 8.3,-44.84 6.64,-68.5 -0.84,-5.82 1.25,-13.7 -4.16,-17.85 -8.3,-2.91 -16.19,-8.73 -25.31,-5.82 -6.23,6.65 -22.42,8.31 -17.87,21.18 8.73,23.66 -2.48,47.33 0.43,71.41 4.14,28.65 0.82,57.71 3.32,85.53 -1.66,19.1 -0.43,40.69 -0.84,60.62 -4.57,7.47 2.09,14.94 0.84,23.66 3.73,6.23 9.12,-0.41 14.53,0.42 11.62,-2.91 20.33,-12.04 31.54,-16.19 14.13,-2.5 22.02,-17.86 34.89,-23.26 15.37,-9.13 41.11,-15.36 40.68,-39.02 l -1.66,-4.57 c -16.6,-10.8 -29.88,-26.99 -46.91,-38.2 2.91,-4.15 9.55,-3.32 13.71,-6.64 15.35,-13.29 33.2,-20.76 48.16,-35.71 4.98,-12.04 23.65,-13.7 21.17,-29.48 1.23,-10.38 -0.43,-21.59 -9.55,-28.65" /><path
         id="path18"
         style="fill:#ffffff;fill-opacity:1;fill-rule:nonzero;stroke:none"
         d="m 2186.7,2415.05 c -2.48,-23.25 -3.73,-43.18 -5.39,-66.43 0,-6.23 -0.82,-14.12 -2.07,-20.76 -5.41,-12.87 -5.41,-22.42 -4.16,-38.2 -7.05,-13.28 1.66,-32.8 -12.03,-44.01 -12.46,-9.55 -27,-4.15 -31.57,5.82 l -2.91,9.13 c 0,12.87 0.43,24.91 -6.23,36.12 -8.3,9.55 -4.98,31.56 -16.19,39.44 -9.55,21.59 -19.08,50.66 -31.95,71 l -1.66,-19.93 c 6.21,-40.27 2.89,-71.82 7.87,-112.51 1.25,-11.63 -0.41,-24.08 -5.8,-34.05 -6.64,-4.15 -14.94,-1.25 -21.6,1.24 -2.89,6.24 -9.55,11.22 -14.94,14.95 -2.91,6.23 2.91,11.21 3.32,16.61 -2.07,12.87 2.07,24.49 0.84,37.37 -1.66,14.94 -4.57,31.55 -4.57,47.33 -3.32,14.12 -5.82,29.48 -5.82,44.42 -4.57,12.87 -2.48,26.99 0,39.86 0.43,7.89 -2.91,14.95 -2.07,22.01 -2.5,8.3 -2.5,17.44 -4.16,26.16 -0.82,4.56 2.09,7.05 5.41,9.13 12.87,5.81 29.47,-9.13 39.43,5.81 10.8,-1.66 8.73,-14.53 12.05,-22.42 13.28,-20.34 19.1,-44.01 35.29,-63.52 16.19,-10.8 7.89,-32.8 16.19,-47.33 3.32,-6.65 4.57,-13.29 7.9,-19.52 2.48,5.4 2.07,12.46 3.32,18.69 6.23,32.79 2.89,68.09 4.14,102.96 5.82,7.89 -0.41,22.42 9.96,26.58 5,-2.91 11.21,0.41 15.37,-4.57 3.73,-4.15 4.57,-9.13 5.82,-14.53 7.87,-5.82 10.78,-12.46 8.71,-22.84 -2.91,-13.7 1.66,-31.14 -2.5,-44.01" /><path
         id="path20"
         style="fill:#ffffff;fill-opacity:1;fill-rule:nonzero;stroke:none"
         d="m 2361.93,2458.64 c -9.96,-28.23 -33.63,-52.73 -42.75,-81.79 5.8,-17.02 16.6,-31.97 23.65,-48.99 8.3,-13.7 13.71,-29.48 24.08,-41.94 4.57,-7.05 3.32,-14.94 5.82,-22.41 0,-3.74 -1.66,-7.89 -4.57,-9.55 -13.28,1.24 -33.22,-12.88 -39.45,5.81 -1.23,4.15 -4.98,7.89 -7.05,11.62 4.16,11.21 -5.39,19.1 -11.21,26.57 -5.39,10.39 -11.62,20.35 -18.26,30.32 -7.89,-13.7 -13.71,-28.66 -22.42,-42.77 l -26.59,-31.97 c -4.98,-3.73 -10.37,-7.47 -16.6,-4.98 -7.48,1.66 -2.48,9.55 -4.57,13.7 -2.07,6.23 -6.23,12.04 -4.98,18.68 13.71,19.93 27.81,39.03 36.13,61.04 2.07,3.73 3.32,7.88 4.14,12.45 5.4,4.98 11.22,10.38 12.88,17.44 -15.36,16.61 -14.13,41.52 -26.57,59.79 -3.32,11.21 -2.5,22.83 -3.75,34.46 0.43,7.89 -1.66,17.85 6.64,22.01 8.32,-4.16 17.45,0 26.18,-2.5 11.62,-9.13 8.71,-25.32 17.42,-35.7 5.82,-4.16 5.82,-10.8 9.55,-16.19 7.48,12.86 9.14,27.81 16.62,41.1 7.46,7.47 11.62,16.19 15.35,24.91 4.57,6.64 12.46,9.55 19.51,7.89 5.41,-12.87 25.75,-1.25 24.08,-17.85 -0.82,-12.04 -9.55,-20.35 -13.28,-31.15" /><path
         id="path22"
         style="fill:#f5f014;fill-opacity:1;fill-rule:nonzero;stroke:none"
         d="m 940.332,3553.55 -10,-344.96 309.998,-120.01 c 0,0 377.42,415.01 842.5,386.2 267.8,-16.6 537.36,-66.64 852.5,-439.75 l 290,83.77 75,308.89 c 0,0 -338.24,596.68 -1127.46,643.39 -718.17,42.51 -1130.89,-433.85 -1232.538,-517.53" /><path
         id="path24"
         style="fill:#100f0d;fill-opacity:1;fill-rule:nonzero;stroke:none"
         d="m 1487,3768.73 -62.4,-27.64 26.34,-59.44 63.01,27.92 c 16.03,7.11 23.65,26.83 16.53,42.88 -6.84,15.46 -24.26,22.67 -39.9,17.87 -1.2,-0.53 -2.4,-1.05 -3.58,-1.59 z m 95.99,-101.09 113.33,-122.56 0.59,0.26 c 5.8,-6.67 12.51,-12.22 23.07,-16.79 10.56,-4.57 23.23,-7.48 33.99,-7.69 -12.15,-11.08 -25.36,-13.38 -37.78,-11.05 l 1.13,-0.92 c 5.67,-9.58 6.06,-20.07 -6.44,-32.01 -20.2,-2.55 -33.66,2.16 -44.06,9.62 l -1.14,0.93 c -1.85,-8.65 -10.64,-16.09 -29.99,-18.97 4.1,6.79 5.71,16.03 4.07,24.54 -1.64,8.52 -6,15.12 -12.39,21.53 l 0.59,0.26 -107.52,115.89 -36.85,-16.32 60.57,-136.69 0.6,0.26 c 2.83,-7.99 7.77,-14.33 15.35,-20.22 7.6,-5.87 17.88,-9.85 28.04,-10.33 -13.94,-11.86 -26.56,-13.89 -36.58,-10.51 l 0.53,-1.19 c 2.1,-11.16 -0.48,-22.97 -14.17,-35.43 -19,-2.03 -29.48,4 -36.35,13.04 l -0.52,1.19 c -4.24,-9.69 -14.21,-17.67 -31.77,-19.76 5.88,7.58 9.85,17.87 10.59,27.45 0.74,9.57 -0.64,17.49 -4.06,25.21 l -58.98,133.13 c -9.63,12.09 -27.97,18.18 -40.32,15.56 10.5,6.79 18.04,25.06 15.81,39.72 l -20.53,46.35 -23.97,54.09 c -3.42,7.72 -8.62,14.66 -15.95,19.94 -8.43,6.22 -17.87,9.86 -27.44,10.6 13.61,11 25.95,13.62 35.98,10.25 l -0.53,1.19 c -2.09,11.16 0.5,22.97 14.77,35.69 18.42,1.76 28.9,-4.26 35.76,-13.31 l 0.53,-1.18 c 3.23,7.12 10.23,13.78 21.46,17.34 l 47.55,21.05 c 13.08,5.81 31.55,9.01 45.82,8.93 33.46,-0.1 65.85,-17.04 86.09,-45.05 9.81,-7.73 23.34,-10.98 33.04,-8.81 -8.11,-5.73 -14.86,-19.39 -15.74,-31.86 6.3,-33.47 -3.77,-68.51 -26.18,-93.37" /><path
         id="path26"
         style="fill:#100f0d;fill-opacity:1;fill-rule:nonzero;stroke:none"
         d="m 1948.65,3746.27 c -5.99,13.07 -20.84,23.21 -32.04,23.95 10.71,3.78 22.99,16.91 26.11,30.32 l -4.88,44.59 c -3.62,32.95 -33.01,56.54 -65.96,52.93 -32.31,-3.54 -56.54,-33 -52.93,-65.95 l 4.8,-43.95 c 6.02,-13.07 20.87,-23.21 32.77,-24.52 -11.41,-3.21 -23.65,-16.98 -26.68,-31.04 l 8.78,-80.12 c 3.54,-32.31 33.65,-56.47 65.95,-52.94 32.95,3.62 56.47,33.66 52.94,65.96 z m 103.01,38.74 c -11.99,-3.93 -24.79,-18.41 -27.12,-33.05 l 8.57,-78.18 c 8.13,-74.31 -46.02,-141.05 -120.33,-149.19 -74.3,-8.13 -140.97,45.38 -149.12,119.68 l -8.63,78.83 c -6.08,13.72 -21.06,25.16 -33.56,25.75 12,3.94 24.22,17.69 27.19,32.4 l -4.68,42.65 c -8.12,74.3 45.31,141.62 119.62,149.76 74.3,8.13 141.68,-45.95 149.84,-120.26 l 4.6,-41.99 c 5.43,-13.8 21.05,-25.16 33.62,-26.4" /><path
         id="path28"
         style="fill:#100f0d;fill-opacity:1;fill-rule:nonzero;stroke:none"
         d="m 2216.16,3794.63 -26.38,-209.61 c -1.05,-8.38 -0.73,-16.29 3.37,-25.32 3.46,-8.95 10.23,-17.66 18.04,-23.24 -18.06,-2.96 -29.26,1.72 -36.11,9.79 l -0.17,-1.29 c -3.95,-10.64 -12.26,-19.42 -31.05,-22.95 -17.34,8.08 -22.57,18.56 -23.76,29.85 l 0.16,1.3 c -9.28,-6.05 -21.3,-7.81 -38.06,-0.46 8.95,3.46 17.66,10.22 23.87,17.96 5.58,7.82 7.84,15.39 8.9,23.77 l 18.83,149.63 c -3.61,12.91 -14.58,24.77 -25.23,28.73 11.22,0.55 24.77,9.33 31.47,20.94 l 14.37,114.15 c 1.05,8.39 0.17,17.01 -2.72,25.24 -4.03,9.68 -10.88,17.75 -18.69,23.32 7.98,0.95 14.51,0.79 20.24,-0.58 6.53,-0.17 12.89,-1.63 17.8,-4.21 4.37,8.62 12.44,15.47 27.92,18.76 0,0 0.65,-0.08 1.37,0.48 l -0.08,-0.64 0.08,0.64 c 0.57,-0.72 1.22,-0.8 1.86,-0.88 16.12,-7.27 25.47,-16.31 31.42,-26.23 4.75,1.37 10.65,1.28 17.02,-0.17 5.88,-0.09 12.89,-1.63 21.04,-4.62 -7.03,-3.7 -12.43,-10.23 -14.86,-19.09 -1.61,-7.66 -0.74,-16.29 2.08,-25.16 l -0.66,0.08 64.66,-220.41 26.3,208.97 c 1.04,8.39 0.17,17.01 -3.37,25.32 -4.02,9.67 -10.22,17.66 -18.05,23.23 17.34,2.41 29.27,-1.72 36.12,-9.78 l 0.16,1.28 c 3.96,10.65 12.27,19.43 31.07,22.96 16.67,-8 22.55,-18.56 23.75,-29.85 l -0.16,-1.29 c 8.62,6.12 21.2,7.16 38.06,0.45 -9.6,-3.38 -17.59,-9.57 -23.89,-17.96 -4.83,-7.25 -8.47,-15.31 -8.88,-23.78 l -0.65,0.08 -13.97,-110.92 c 2.83,-14.12 14.82,-28.08 26.2,-31.48 -11.94,-1.11 -26.95,-11.02 -33.17,-23.99 l -18.5,-147.05 0.65,-0.08 c -1.71,-8.31 -0.74,-16.29 2.72,-25.24 3.46,-8.95 10.22,-17.67 18.69,-23.32 -7.99,-0.96 -14.51,-0.79 -20.24,0.59 -6.54,0.16 -12.9,1.62 -17.82,4.2 -4.36,-8.62 -11.7,-14.91 -25.89,-18.36 -0.72,-0.57 -2.02,-0.41 -2.75,-0.97 l -0.64,0.09 c -1.21,0.8 -2.5,0.96 -3.72,1.77 -14.82,7.11 -23.6,15.42 -28.91,25.26 -5.41,-1.29 -11.29,-1.2 -17.65,0.26 -5.89,0.08 -12.27,1.54 -21.05,4.61 7.66,3.62 13.15,10.79 14.86,19.09 1.69,8.31 1.38,16.21 -1.44,25.08 l -64.56,221.05" /><path
         id="path30"
         style="fill:#100f0d;fill-opacity:1;fill-rule:nonzero;stroke:none"
         d="m 2726.57,3631.47 c -1.01,-13.96 5.84,-29.59 14.64,-36.77 -11.36,3.37 -29.04,-1.76 -39.11,-12.04 l -6,-143.11 c -0.19,-9.3 0.49,-18.31 4.39,-29.61 3.9,-11.29 10.43,-23.14 18.37,-32.06 -16.29,2.14 -26.57,10.75 -33.38,22.02 l 0.02,-1.45 c -3.08,-10.79 -9.69,-18.43 -26.27,-16.86 -16.15,14.36 -21.82,27.96 -23.41,41.03 l -0.02,1.45 c -7.8,-4.15 -18.58,-2.53 -33.85,10.68 7.84,1.25 15.35,6.27 19.63,13.59 4.87,7.02 6.53,14.89 9.94,102.14 l -59.34,-50.64 0.58,-0.29 c -7.19,-5.9 -12.36,-12.05 -14.89,-20.22 -3.12,-7.88 -2.44,-16.89 1.42,-23.83 -19.82,3.86 -27.75,11.33 -29.29,20.04 l -1.16,-0.89 c -11.26,-6.81 -25.46,-10.74 -46.73,-6.9 -11.48,12.09 -9.53,21.99 -2.96,31.07 l 1.16,0.89 c -13.05,-1.6 -26.18,1.17 -37.93,12.67 11.93,-0.74 25.29,1.43 36.58,5.33 10.7,4.2 18.79,8.93 134.01,107.58 2.46,13.98 -4.12,31.64 -14.38,38.8 11.66,-2.78 28.19,1.47 38.82,11.47 l 3.24,76.49 c 2.69,73.88 1.71,83.75 -1.89,94.18 -4.2,12.16 -10.43,23.14 -18.38,32.07 16.03,-2.74 26.58,-10.76 33.38,-22.03 l -0.01,1.46 c 3.09,10.79 9.69,18.42 26.28,16.86 16.14,-14.36 21.82,-27.96 23.41,-41.02 l 0.01,-1.46 c 7.81,4.15 18.3,1.94 33.84,-10.68 -7.83,-1.25 -15.05,-5.69 -19.61,-13.59 -4.59,-6.45 -6.53,-14.9 -10.8,-102.45 66.81,57.13 72.27,63.88 74.51,71.46 3.4,8.46 2.44,16.88 -1.43,23.81 19.53,-4.43 27.75,-11.32 29.3,-20.02 l 1.15,0.88 c 11.27,6.81 25.47,10.75 46.73,6.91 11.46,-12.09 9.54,-21.99 2.95,-31.07 l -1.14,-0.9 c 13.06,1.6 25.88,-1.74 37.93,-12.66 -11.94,0.74 -24.41,-1.14 -36.58,-5.34 -10.43,-3.6 -18.8,-8.93 -75.25,-56.64 l -58.48,-50.35" /><path
         id="path32"
         style="fill:#100f0d;fill-opacity:1;fill-rule:nonzero;stroke:none"
         d="m 3087.83,3273.59 -75.61,21.92 -60.93,-49.87 -2.52,78.7 -66.25,42.54 74.06,26.71 19.98,76.15 48.29,-62.19 78.61,4.53 -44.22,-65.13 28.59,-73.36" /><path
         id="path34"
         style="fill:#100f0d;fill-opacity:1;fill-rule:nonzero;stroke:none"
         d="m 1287.83,3353.59 -75.61,21.92 -60.93,-49.87 -2.52,78.7 -66.25,42.54 74.06,26.71 19.98,76.15 48.29,-62.19 78.61,4.53 -44.22,-65.13 28.59,-73.36" /><path
         id="path36"
         style="fill:#ffffff;fill-opacity:1;fill-rule:nonzero;stroke:none"
         d="m 2688.23,1824.73 c 43.6,37.47 46.54,101.43 15.79,147.58 -1.9,-24.73 -0.74,-49.58 -4.07,-74.43 -1.51,-24.73 -6.38,-48.94 -11.72,-73.15" /><path
         id="path38"
         style="fill:#ffffff;fill-opacity:1;fill-rule:nonzero;stroke:none"
         d="m 2746.85,2115.3 c -3.31,1.27 -6.89,1.14 -10.33,1.78 -2.15,-16.82 -4.45,-33.65 -6.99,-50.47 29.93,-27.4 37.09,-102.71 23.69,-168.35 10.84,33.14 17.99,67.53 21.16,102.08 1.79,20.52 2.42,41.16 0,61.68 -1.78,14.91 -4.98,31.61 -14.54,43.71 -3.42,4.21 -7.76,7.78 -12.99,9.57" /><path
         id="path40"
         style="fill:#ffffff;fill-opacity:1;fill-rule:nonzero;stroke:none"
         d="m 1530.51,1824.73 c -5.6,25.61 -8.78,50.96 -12.22,76.84 -3.05,23.45 -1.65,47.29 -3.45,70.74 -30.7,-46.15 -27.76,-110.11 15.67,-147.58" /><path
         id="path42"
         style="fill:#ffffff;fill-opacity:1;fill-rule:nonzero;stroke:none"
         d="m 1469.48,1898.26 c -13.25,65.64 -6.25,140.95 23.7,168.35 -2.42,16.82 -4.82,33.65 -7.02,50.47 -3.43,-0.64 -6.99,-0.51 -10.32,-1.78 -5.09,-1.79 -9.41,-5.36 -12.87,-9.57 -9.67,-12.1 -12.87,-28.8 -14.65,-43.71 -2.28,-20.52 -1.79,-41.16 0.13,-61.68 3.19,-34.55 10.2,-68.94 21.03,-102.08" /><path
         id="path44"
         style="fill:#ffffff;fill-opacity:1;fill-rule:nonzero;stroke:none"
         d="m 2289.2,2059.47 c -18.72,-5.98 -37.98,-12.23 -57.47,-16.82 2.29,-3.83 4.71,-7.39 7.38,-10.82 13.39,-11.73 26.64,-20.78 43.71,-26.53 8.54,-2.93 17.32,-4.7 26.39,-5.73 -9.07,4.97 -15.94,12.5 -19.74,21.67 1.12,-0.25 2.4,-0.38 3.56,-0.25 6.24,0.76 10.68,6.5 9.81,12.87 -0.77,6.25 -6.48,10.7 -12.73,9.8 -1.16,-0.11 -2.18,-0.62 -3.21,-1.01 0.91,5.86 3.21,11.47 6.37,16.57 -1.26,0 -2.68,0.25 -4.07,0.25" /><path
         id="path46"
         style="fill:#ffffff;fill-opacity:1;fill-rule:nonzero;stroke:none"
         d="m 1913.62,1999.57 c 8.93,1.03 17.84,2.8 26.27,5.73 17.07,5.75 30.44,14.8 43.7,26.53 2.67,3.43 5.23,6.99 7.52,10.82 -19.51,4.59 -38.73,10.84 -57.61,16.82 -1.4,0 -2.68,-0.25 -4.07,-0.25 3.31,-5.1 5.47,-10.71 6.36,-16.57 -1.01,0.39 -2.02,0.9 -3.18,1.01 -6.24,0.9 -11.87,-3.55 -12.75,-9.8 -0.77,-6.37 3.58,-12.11 9.82,-12.87 1.28,-0.13 2.42,0 3.58,0.25 -3.72,-9.17 -10.71,-16.7 -19.64,-21.67" /><path
         id="path48"
         style="fill:#ffffff;fill-opacity:1;fill-rule:nonzero;stroke:none"
         d="m 2124.67,2130.07 c -4.33,0 -8.65,0 -13,0 -0.14,0 -0.14,0 -0.24,0 -0.16,0 -0.27,0 -0.4,0 -4.32,0 -8.67,0 -12.88,0 -73.15,-0.24 -138.4,-1.91 -197.14,-5.09 38.74,-11.84 75.05,-29.7 112.66,-44.73 16.31,-6.63 40.27,-18.74 57.98,-11.1 17.59,8.04 20.78,36.97 26.5,52.9 10.72,-42.57 -1.26,-94.56 -25.86,-134.72 -0.77,-6.11 -1.41,-12.36 -2.16,-18.47 -3.2,-28.42 -6.64,-56.71 -10.34,-85.14 -3.42,-25.99 -6.86,-51.85 -10.68,-77.73 -1.92,-13.01 -2.19,-27.66 0.75,-40.4 5.09,-22.43 19.37,-39.12 41.94,-45.11 6.23,-1.66 12.86,-2.56 19.63,-2.56 6.62,0 13.36,0.9 19.61,2.56 22.56,5.99 36.69,22.68 41.8,45.11 2.93,12.74 2.67,27.39 0.9,40.4 -3.83,25.88 -7.4,51.74 -10.71,77.73 -3.68,28.43 -7.13,56.72 -10.32,85.14 -0.78,6.11 -1.39,12.36 -2.16,18.47 -24.61,40.16 -36.59,92.15 -25.88,134.72 5.75,-15.93 8.9,-44.86 26.5,-52.9 17.73,-7.64 41.56,4.47 57.86,11.1 37.6,15.03 74.04,32.89 112.81,44.73 -58.89,3.18 -124.03,4.85 -197.17,5.09" /><path
         id="path50"
         style="fill:#ffffff;fill-opacity:1;fill-rule:nonzero;stroke:none"
         d="m 1684.94,2183.74 c 11.51,16.4 14.75,36.76 7.44,55.68 -3.06,-16.18 -9.43,-29.94 -22.56,-40.52 -15.93,-12.48 -37.46,-15.42 -56.07,-7.78 -24.08,9.95 -51.6,49.07 -32.64,99.54 6.38,17.2 21.42,31.48 40.42,34.27 16.81,2.56 30.71,-6.62 39.24,-20.37 0.25,23.06 -18.86,40.77 -41.29,43.07 -25.22,2.54 -46.66,-11.22 -60.53,-30.84 -7.27,58.11 -24.1,194.72 -24.6,200.97 -2.3,34.8 -4.97,74.3 14.67,116.74 0,0 3.79,7.65 10.04,20.28 8.8,11.2 17.86,22.05 30.08,30.07 19.9,13.13 49.33,10.82 54.56,-16.31 8.54,13.5 4.34,30.19 -6.38,41.41 -12.11,11.72 -29.56,15.17 -45.62,11.34 31.21,64.11 67.28,140.44 63.6,142.35 -6.39,3.46 -129.62,-217.54 -129.62,-217.54 -22.81,-49.19 -19.76,-94.05 -17.32,-130.11 0.49,-7.66 1.02,-15.05 1.26,-22.19 l 4.99,-158.92 c 0.23,-7.64 -10.99,-8.66 -12,-1.02 -11.85,84.88 -25.61,196.39 -21.77,232.21 1.11,10.05 16.54,137.26 97.85,263.17 25.36,39.51 54.3,74.55 86.43,105.26 13.12,8.54 28.79,20.78 44.71,21.66 10.46,0.51 21.8,-10.94 16.06,-21.66 -2.4,-7.38 -8.27,-11.46 -15.79,-10.56 -1.66,0.75 -10.97,8.66 -7.52,10.69 -3.05,-0.25 -1.93,-9.8 -1.54,-11.08 1.4,-5.36 5.48,-9.55 10.58,-11.61 12.5,-5.08 26.64,1.66 34.29,11.86 13.39,17.46 9.05,43.33 -8.55,56.46 -3.04,2.29 -6.24,4.09 -9.28,5.61 101.94,70.98 229.9,106.92 382.82,106.92 h 0.37 0.16 0.48 c 152.81,0 280.78,-35.94 382.87,-106.92 -3.2,-1.52 -6.25,-3.32 -9.45,-5.61 -17.58,-13.13 -21.79,-39 -8.53,-56.46 7.78,-10.2 21.78,-16.94 34.41,-11.86 4.96,2.06 9.04,6.25 10.57,11.61 0.4,1.28 1.4,10.83 -1.53,11.08 3.44,-2.03 -5.99,-9.94 -7.5,-10.69 -7.67,-0.9 -13.51,3.18 -15.94,10.56 -5.75,10.72 5.73,22.17 16.19,21.66 15.79,-0.88 31.47,-13.12 44.6,-21.66 32.25,-30.71 61.04,-65.75 86.52,-105.26 81.2,-125.91 96.73,-253.12 97.76,-263.17 3.82,-35.82 -9.95,-147.33 -21.67,-232.21 -1.13,-7.64 -12.35,-6.62 -12.1,1.02 l 4.97,158.92 c 0.24,7.14 0.77,14.53 1.28,22.19 2.53,36.06 5.46,80.92 -17.2,130.11 0,0 -123.36,221 -129.76,217.54 -3.68,-1.91 32.51,-78.24 63.59,-142.35 -16.06,3.83 -33.37,0.38 -45.62,-11.34 -10.7,-11.22 -14.78,-27.91 -6.24,-41.41 5.11,27.13 34.54,29.44 54.56,16.31 12.08,-8.02 21.15,-18.87 29.95,-30.07 1.53,-3.2 2.93,-6 4.19,-8.54 3.71,-7.4 5.87,-11.74 5.87,-11.74 19.77,-42.44 17.08,-81.94 14.65,-116.74 -0.38,-6.25 -17.33,-142.86 -24.46,-200.97 -14.02,19.62 -35.3,33.38 -60.67,30.84 -22.43,-2.3 -41.42,-20.01 -41.17,-43.07 8.44,13.75 22.44,22.93 39.12,20.37 19,-2.79 34.04,-17.07 40.55,-34.27 18.98,-50.47 -8.68,-89.59 -32.63,-99.54 -18.6,-7.64 -40.26,-4.7 -56.08,7.78 -13.25,10.58 -19.63,24.34 -22.7,40.52 -7.4,-19.19 -3.84,-39.86 8.01,-56.38 l 202.12,-34.9 c 25.8,215.66 27.56,415.66 27.56,418.56 v 1.28 c -0.63,5.6 -14.4,139.55 -101.96,275.4 -81.04,125.66 -243.02,275.42 -554.13,275.42 -0.11,0 -0.11,0 -0.24,0 -0.14,0 -0.14,0 -0.24,0 h -0.16 c 0,0 -0.11,0 -0.24,0 h -0.13 c -311.22,0 -473.2,-149.76 -554.11,-275.42 -87.7,-135.85 -101.46,-269.8 -101.97,-275.4 l -0.12,-1.28 c 0,-2.9 1.88,-201.94 27.41,-417.02 l 202.83,34.06" /><path
         id="path52"
         style="fill:#ffffff;fill-opacity:1;fill-rule:nonzero;stroke:none"
         d="m 2633.54,2592.71 c 4.6,-2.17 8.93,-2.56 12.63,-0.78 10.06,4.72 10.7,24.22 1.65,43.21 -1,2.04 -2.05,3.95 -3.05,5.87 -9.29,15.54 -22.68,24.33 -31.72,20.01 -10.07,-4.85 -10.72,-24.23 -1.67,-43.22 5.85,-12.11 14.28,-21.28 22.16,-25.09" /><path
         id="path54"
         style="fill:#ffffff;fill-opacity:1;fill-rule:nonzero;stroke:none"
         d="m 2625.92,2570.77 h -0.14 c -165.31,56.98 -339.65,88.71 -514.35,88.97 -174.87,-0.26 -349.2,-31.99 -514.5,-88.97 -1.28,-0.51 -2.55,-0.89 -3.95,-1.39 -6.39,-2.16 -13.14,-4.46 -20.16,-7.01 131.67,20.9 264.33,35.3 397.51,41.42 47.04,2.16 94.05,3.06 141.1,2.92 47.01,0.14 94.04,-0.76 141.07,-2.92 133.17,-6.12 265.86,-20.52 397.49,-41.42 -8.53,3.06 -16.45,5.75 -24.07,8.4" /><path
         id="path56"
         style="fill:#ffffff;fill-opacity:1;fill-rule:nonzero;stroke:none"
         d="m 2619.03,2247.96 c 4.44,20.64 -4.34,40.16 -19.52,43.47 -15.02,3.31 -30.95,-10.84 -35.29,-31.5 -4.46,-20.76 4.22,-40.13 19.39,-43.44 15.16,-3.32 30.96,10.84 35.42,31.47" /><path
         id="path58"
         style="fill:#ffffff;fill-opacity:1;fill-rule:nonzero;stroke:none"
         d="m 2396.39,1704.67 c -4.59,-8.03 -12,-25.49 -19.76,-35.94 -25.37,-53.41 -35.04,-109.85 -35.04,-158.92 0,-65 -49.2,-79.02 -89.21,-74.68 -38.51,4.2 -81.94,13 -127.71,13 -4.33,0 -8.65,0 -13,-0.26 -0.14,0 -0.14,0 -0.24,0 -0.16,0 -0.27,0 -0.4,0 -4.19,0.26 -8.67,0.26 -13,0.26 -45.61,0 -89.08,-8.8 -127.7,-13 -39.88,-4.34 -89.2,9.68 -89.2,74.68 0,49.07 -9.69,105.51 -34.92,158.92 -7.79,10.45 -15.16,27.91 -19.9,35.94 100.57,-41.67 144.02,-64.86 271.72,-70.99 4.46,0.26 8.81,0.39 13,0.65 0.13,0 0.24,0 0.4,0 0.1,0 0.1,0 0.24,0 4.19,-0.26 8.54,-0.39 13,-0.65 127.71,6.13 171.29,29.32 271.72,70.99 z m -5.61,-291.71 c -6.12,-21.29 -17.33,-40.66 -36.33,-56.08 -50.97,-41.56 -119.66,-28.04 -177.77,-12.88 -20.64,5.36 -41.3,10.2 -62.58,12.75 -0.91,0.13 -1.8,0.13 -2.67,0.25 -0.91,-0.12 -1.81,-0.12 -2.69,-0.25 -21.28,-2.55 -41.92,-7.39 -62.57,-12.75 -58.26,-15.16 -126.81,-28.68 -177.93,12.88 -18.84,15.42 -30.19,34.79 -36.31,56.08 -10.69,36.44 -6.64,78.37 -1.14,115.33 4.58,-46.38 8.54,-106.54 48.82,-137.63 42.68,-33.15 100.55,-14.16 146.56,0.37 27.37,8.67 56.18,18.35 85.26,18.35 28.91,0 57.73,-9.68 85.25,-18.35 46.01,-14.53 103.73,-33.52 146.56,-0.37 40.14,31.09 44.22,91.25 48.67,137.63 5.49,-36.96 9.55,-78.89 -1.13,-115.33 z m 172.94,455.99 c 3.83,5.59 5.35,13.38 3.43,20.01 -3.43,13.77 -20,17.96 -31.72,11.97 -12.11,-6.88 -15.04,-23.96 -8.8,-35.81 6.24,-11.85 19.89,-18.6 32.76,-20.13 17.58,-2.05 33.64,6.11 46.37,18.22 4.47,8.93 8.3,18.86 11.36,30.08 0.75,5.34 1.52,10.71 2.29,16.17 1.39,8.56 1.76,18.5 4.06,27.15 l 12.75,105.78 c -8.53,-26.88 -25.61,-53.13 -54.15,-61.04 -23.2,-6.36 -49.46,4.97 -55.32,29.06 15.81,-19.25 42.08,-19.25 59,-1.14 18.24,19.36 21.17,48.05 26.79,72.76 0.74,3.57 1.64,7.14 2.66,10.83 -17.21,2.93 -35.06,5.87 -53.4,8.67 -22.31,0.38 -44.72,0.26 -67.02,-0.89 23.32,-7.01 44.22,-19.63 59.38,-40.4 -20.78,10.96 -42.04,17.72 -65.77,18.74 -29.04,1.27 -57.85,-2.93 -86.52,-7.4 -7.91,-1.28 -15.93,-2.55 -23.96,-3.82 4.58,-4.84 8.03,-10.7 9.94,-17.2 -2.82,1.01 -5.99,1.39 -9.17,1.01 -9.58,-1.27 -16.43,-9.04 -15.32,-17.33 1.02,-8.41 9.72,-14.14 19.13,-12.87 1.03,0.13 2.05,0.38 3.06,0.63 -4.09,-8.67 -11.1,-16.17 -19.99,-21.4 34.52,4.33 67.65,15.42 98.62,31.23 -30.84,-32.64 -73.79,-53.28 -119.17,-54.82 47.43,-10.07 96.87,-12.35 144.4,-2.92 -125.51,-65.9 -263.54,10.83 -323.57,49.57 8.65,-12.11 18.2,-23.32 28.4,-34.53 -12.22,2.17 -23.17,7.01 -32.6,13.5 8.54,-19.1 17.82,-37.84 25.24,-57.35 -8.81,6.88 -16.97,15.3 -24.36,24.73 7.66,-34.41 14.91,-68.83 21.92,-103.22 0.25,-1.41 0.64,-2.81 0.89,-4.22 6.13,-28.8 33.13,-47.15 57.99,-56.19 5.87,-2.18 44.86,-15.18 48.81,-57.11 2.03,-21.52 -11.47,-39.38 -27.77,-52.25 12.1,27.91 17.18,60.16 -10.21,78.77 -9.55,6.37 -40.65,15.41 -43.2,-8.55 -3.06,-28.8 29.7,-8.66 41.17,-34.92 10.46,-24.34 -12.24,-37.97 -31.49,-41.66 6.52,4.19 25.88,19.62 13.65,29.06 -19,11.83 -29.7,-23.46 -70.62,-37.23 -13.87,-3.94 -27.9,-7.26 -42.42,-7.38 -3.33,0 -6.63,0 -9.81,0 -3.32,0 -6.51,0 -9.83,0 -14.52,0.12 -28.53,3.44 -42.44,7.38 -40.9,13.77 -51.73,49.06 -70.61,37.23 -12.21,-9.44 7.02,-24.87 13.66,-29.06 -19.26,3.69 -41.94,17.32 -31.48,41.66 11.32,26.26 44.08,6.12 41.03,34.92 -2.56,23.96 -33.65,14.92 -43.08,8.55 -27.54,-18.61 -22.43,-50.86 -10.32,-78.77 -16.18,12.87 -29.82,30.73 -27.8,52.25 3.95,41.93 42.96,54.93 48.82,57.11 24.97,9.04 51.86,27.39 57.98,56.19 0.38,1.41 0.66,2.81 0.92,4.22 6.99,34.39 14.38,68.81 21.9,103.22 -7.39,-9.43 -15.55,-17.85 -24.35,-24.73 7.41,19.51 16.83,38.25 25.38,57.35 -9.57,-6.49 -20.53,-11.33 -32.64,-13.5 10.19,11.21 19.63,22.42 28.43,34.53 -60.02,-38.74 -198.18,-115.47 -323.7,-49.57 47.66,-9.43 97.11,-7.15 144.39,2.92 -45.25,1.54 -88.2,22.18 -119.04,54.82 30.84,-15.81 64.1,-26.9 98.52,-31.23 -8.94,5.23 -15.93,12.73 -19.88,21.4 0.87,-0.25 1.9,-0.5 2.92,-0.63 9.57,-1.27 18.1,4.46 19.25,12.87 1.02,8.29 -5.73,16.06 -15.29,17.33 -3.3,0.38 -6.51,0 -9.31,-1.01 1.91,6.5 5.35,12.36 10.06,17.2 -8.03,1.27 -16.05,2.54 -24.07,3.82 -28.56,4.47 -57.49,8.67 -86.53,7.4 -23.58,-1.02 -44.87,-7.78 -65.78,-18.74 15.18,20.77 36.2,33.39 59.38,40.4 -22.29,1.15 -44.6,1.27 -66.9,0.89 -18.47,-2.8 -36.18,-5.74 -53.38,-8.67 0.88,-3.69 1.77,-7.26 2.54,-10.83 5.59,-24.71 8.66,-53.4 26.76,-72.76 16.95,-18.11 43.33,-18.11 59.13,1.14 -5.98,-24.09 -32.12,-35.42 -55.31,-29.06 -28.53,7.91 -45.63,34.16 -54.17,61.04 l 12.64,-105.78 c 2.28,-8.65 2.77,-18.59 4.05,-27.15 0.77,-5.46 1.54,-10.83 2.31,-16.17 3.06,-11.22 6.88,-21.15 11.46,-30.08 12.64,-12.11 28.7,-20.27 46.27,-18.22 13,1.53 26.5,8.28 32.75,20.13 6.24,11.85 3.46,28.93 -8.8,35.81 -11.72,5.99 -28.15,1.8 -31.72,-11.97 -1.91,-6.63 -0.38,-14.42 3.57,-20.01 0.37,-0.64 5.47,-6.75 6.88,-6.75 -2.54,-2.56 -14.01,8.92 -14.91,10.18 -5.23,7.4 -7.14,17.08 -4.86,25.88 5.76,20.77 29.57,28.92 48.83,23.57 18.98,-5.73 31.48,-24.59 33.02,-43.71 1.51,-20.77 -8.94,-40.14 -25.64,-52.12 -10.58,-7.65 -22.05,-11.73 -33.64,-13 48.93,-21.67 115.46,-7.9 175.75,17.33 -76.85,-85.65 -94.33,-224.56 -41.67,-425.03 7.63,-29.31 16.82,-59.9 27.53,-91.88 -55.7,68.31 -89.74,154.97 -102.23,244.93 -0.1,0.53 -0.26,1.15 -0.37,1.8 -5.6,25.37 -5.22,51.11 -5.97,76.97 0.61,18.11 -11.48,50.86 -34.95,46.52 -9.82,-1.77 -18.6,-12.36 -13.88,-22.3 1.91,-4.08 6.11,-8.55 10.56,-9.82 0.53,-0.25 7.53,-1.65 10.08,-1.27 -12.22,-7.78 -26.13,-1.91 -34.02,9.57 -7.15,12.48 -2.68,28.28 7.01,38.22 17.2,17.46 42.05,14.28 60.02,1.15 1.79,15.55 4.08,31.09 7.26,46.39 -39.37,-2.16 -83.73,-0.37 -112.77,29.57 4.44,-34.67 8.78,-69.34 13.37,-104 4.84,-36.44 9.55,-73.8 16.83,-110.75 4.32,-22.17 9.56,-44.08 16.17,-65.51 31.61,-70.47 81.31,-136.24 133.94,-192.82 23.83,-25.74 48.32,-49.7 71.9,-71.24 10.18,-5.49 20.89,-9.69 32.12,-11.09 12.49,-1.65 26.49,1.02 36.43,9.18 9.46,7.91 14.14,22.56 6.37,33.4 -8.14,11.34 -24.84,10.56 -32.36,-0.9 -6.12,-9.18 -3.96,-21.16 2.79,-29.31 -2.16,-1.53 -10.31,10.07 -10.82,10.95 -4.33,7.77 -4.59,17.34 -1.29,25.5 7.15,17.58 27.53,24.85 45,18.48 18.61,-6.77 29.32,-25.99 28.16,-45.38 -1.14,-19.62 -13.63,-36.43 -30.44,-45.87 -7.14,-3.95 -14.42,-6.5 -21.69,-7.78 31.1,-15.55 70.74,-19 101.32,-5.99 47.93,20.26 68.96,70.35 82.08,111.64 0.13,-0.25 0.24,-0.63 0.4,-0.89 0.1,0.26 0.1,0.64 0.24,0.89 13.25,-41.29 34.29,-91.38 82.08,-111.64 30.58,-13.01 70.21,-9.56 101.33,5.99 -7.27,1.28 -14.55,3.83 -21.67,7.78 -16.7,9.44 -29.34,26.25 -30.46,45.87 -1.02,19.39 9.68,38.61 28.27,45.38 17.34,6.37 37.73,-0.9 44.99,-18.48 3.32,-8.16 2.93,-17.73 -1.26,-25.5 -0.64,-0.88 -8.78,-12.48 -10.85,-10.95 6.64,8.15 8.93,20.13 2.81,29.31 -7.64,11.46 -24.21,12.24 -32.48,0.9 -7.79,-10.84 -2.95,-25.49 6.5,-33.4 9.8,-8.16 23.81,-10.83 36.31,-9.18 11.23,1.4 21.91,5.6 32.1,11.09 18.99,17.21 38.37,36.07 57.61,55.96 57.74,60.02 113.7,131.13 148.23,208.1 4.47,14.28 8.27,28.81 11.6,43.46 10.06,43.98 15.66,89.08 21.41,132.8 4.71,34.66 9.04,69.33 13.37,104 -29.04,-29.94 -73.39,-31.73 -112.79,-29.57 3.18,-15.3 5.48,-30.84 7.4,-46.39 17.84,13.13 42.83,16.31 60.02,-1.15 9.71,-9.94 14.03,-25.74 6.88,-38.22 -7.89,-11.48 -21.77,-17.35 -34.04,-9.57 2.7,-0.38 9.57,1.02 10.22,1.27 4.45,1.27 8.67,5.74 10.58,9.82 4.6,9.94 -4.2,20.53 -14.03,22.3 -23.32,4.34 -35.55,-28.41 -34.77,-46.52 -0.91,-25.86 -0.53,-51.6 -6.01,-76.97 -0.14,-0.65 -0.37,-1.27 -0.51,-1.8 -12.37,-89.96 -46.52,-176.62 -102.07,-244.93 10.7,31.98 19.86,62.57 27.54,91.88 52.61,200.47 35.16,339.38 -41.84,425.03 60.3,-25.23 126.94,-39 175.88,-17.33 -11.6,1.27 -23.06,5.35 -33.77,13 -16.7,11.98 -27.13,31.35 -25.47,52.12 1.52,19.12 14.01,37.98 32.87,43.71 19.36,5.35 43.2,-2.8 48.81,-23.57 2.41,-8.8 0.51,-18.48 -4.71,-25.88 -0.9,-1.26 -12.36,-12.74 -14.91,-10.18 1.37,0 6.49,6.11 6.88,6.75" /><path
         id="path60"
         style="fill:#ffffff;fill-opacity:1;fill-rule:nonzero;stroke:none"
         d="m 2329.34,1641.07 c -16.06,-6.74 -32.5,-12.35 -49.2,-17.07 l -12.34,-70.74 c 15.79,-0.12 28.29,6.63 43.33,17.08 l 18.21,70.73" /><path
         id="path62"
         style="fill:#ffffff;fill-opacity:1;fill-rule:nonzero;stroke:none"
         d="m 2252.24,1468.25 c 21.41,0.14 35.57,1.92 48.7,19.76 v 63.35 c -10.21,-6.51 -22.57,-10.33 -40.02,-13.63 l -8.68,-69.48" /><path
         id="path64"
         style="fill:#ffffff;fill-opacity:1;fill-rule:nonzero;stroke:none"
         d="m 2266.38,1620.3 c -17.83,-4.59 -35.93,-8.16 -54.15,-10.95 l -6.63,-68.58 c 0,0 30.08,2.3 49.3,9.18 l 11.48,70.35" /><path
         id="path66"
         style="fill:#ffffff;fill-opacity:1;fill-rule:nonzero;stroke:none"
         d="m 2247.4,1535.42 c -19.76,-6.62 -29.82,-8.28 -49.59,-7.9 l -5.71,-54.16 47.9,-3.95 7.4,66.01" /><path
         id="path68"
         style="fill:#ffffff;fill-opacity:1;fill-rule:nonzero;stroke:none"
         d="m 2439.19,2670.19 c 37.24,-9.17 74.18,-19.75 111.02,-31.99 -22.04,61.43 -46.52,119.55 -75.57,174.09 -4.24,1.26 -8.62,2.47 -12.96,3.7 23.04,-46.49 43.3,-95.3 61.69,-146.57 -30.54,10.15 -61.2,18.91 -92,26.92 2.63,-8.67 5.26,-17.19 7.82,-26.15" /><path
         id="path70"
         style="fill:#ffffff;fill-opacity:1;fill-rule:nonzero;stroke:none"
         d="m 2291.12,2699.63 c 36.44,-4.72 72.39,-10.83 108.21,-18.35 -19,61.43 -39.27,115.59 -60.42,165.29 -4.99,0.92 -10.02,1.72 -15.07,2.6 16.93,-41.82 33.21,-86.76 48.66,-136.66 -28.51,5.98 -57.12,10.82 -85.97,15.02 1.48,-9.36 3.2,-18.46 4.59,-27.9" /><path
         id="path72"
         style="fill:#ffffff;fill-opacity:1;fill-rule:nonzero;stroke:none"
         d="m 2202.97,2866.38 c 9.35,-42.35 17.99,-85.61 25.25,-130.3 -29.25,2.86 -58.84,4.67 -88.63,5.83 0.16,-10.06 0.34,-20.12 0.49,-30.18 38.74,-0.76 77.11,-3.18 114.98,-6.88 -8.94,54.94 -19.52,108.2 -31.62,159.56 -6.9,0.73 -13.7,1.38 -20.47,1.97" /><path
         id="path74"
         style="fill:#ffffff;fill-opacity:1;fill-rule:nonzero;stroke:none"
         d="m 2185.08,1528.16 c -20.02,-2.8 -42.44,-2.68 -66.4,-0.64 v -52.5 l 61.82,-1.66 4.58,54.8" /><path
         id="path76"
         style="fill:#ffffff;fill-opacity:1;fill-rule:nonzero;stroke:none"
         d="m 2325.38,3011.87 c -1.77,0.48 -3.64,0.96 -5.47,1.44 38.74,-39.19 71.52,-81.91 100.12,-127.65 -20.7,5.33 -42.44,10.3 -64.48,14.94 2.22,-4.98 4.47,-9.84 6.7,-14.91 27.63,-5.47 54.78,-11.71 80.51,-18.34 -32.76,52.38 -70.96,100.81 -117.38,144.52" /><path
         id="path78"
         style="fill:#ffffff;fill-opacity:1;fill-rule:nonzero;stroke:none"
         d="m 2232.17,3035.03 c 21.37,-38.65 42.09,-78.3 62.07,-121.07 -15.68,2.63 -31.29,4.92 -46.86,7.05 1.32,-5.33 2.81,-10.45 4.1,-15.82 21.66,-2.67 43.6,-5.85 65.52,-9.55 -22.69,48.55 -46.29,93.16 -70.75,136.75 -4.73,0.94 -9.38,1.75 -14.08,2.64" /><path
         id="path80"
         style="fill:#ffffff;fill-opacity:1;fill-rule:nonzero;stroke:none"
         d="m 2136.5,2915.14 c 23.6,-0.77 49.09,-2.3 75.6,-4.72 -12.24,47.03 -25.75,92.15 -40.79,135.47 -6.01,0.68 -11.78,1.25 -17.38,1.76 12.82,-38.31 24.7,-77.76 35.43,-118.91 -18.41,1.68 -36.04,2.78 -53.15,3.65 0.08,-5.74 0.23,-11.5 0.29,-17.25" /><path
         id="path82"
         style="fill:#ffffff;fill-opacity:1;fill-rule:nonzero;stroke:none"
         d="m 2104.15,1537.59 -1.79,65.39 c -1.52,-0.14 -2.94,-0.14 -4.33,-0.14 -24.96,0 -50.2,1.53 -75.18,4.85 l 5.98,-66.92 c 22.05,-4.59 47.42,-4.32 75.32,-3.18" /><path
         id="path84"
         style="fill:#ffffff;fill-opacity:1;fill-rule:nonzero;stroke:none"
         d="m 2037.64,1528.16 4.59,-54.8 61.79,1.66 0.13,52.5 c -23.96,-2.04 -46.5,-2.16 -66.51,0.64" /><path
         id="path86"
         style="fill:#ffffff;fill-opacity:1;fill-rule:nonzero;stroke:none"
         d="m 1982.69,1469.41 47.94,3.95 -5.63,54.16 c -19.86,-0.38 -29.94,1.28 -49.68,7.9 l 7.37,-66.01" /><path
         id="path88"
         style="fill:#ffffff;fill-opacity:1;fill-rule:nonzero;stroke:none"
         d="m 2017.23,1540.77 -6.75,68.58 c -18.22,2.79 -36.33,6.36 -54.15,10.95 l 11.58,-70.35 c 19.25,-6.88 49.32,-9.18 49.32,-9.18" /><path
         id="path90"
         style="fill:#ffffff;fill-opacity:1;fill-rule:nonzero;stroke:none"
         d="m 1921.78,1551.36 v -63.35 c 13.26,-17.84 27.26,-19.62 48.79,-19.76 l -8.64,69.48 c -17.46,3.3 -29.83,7.12 -40.15,13.63" /><path
         id="path92"
         style="fill:#ffffff;fill-opacity:1;fill-rule:nonzero;stroke:none"
         d="m 1955.04,1553.26 -12.37,70.74 c -16.69,4.72 -33.25,10.33 -49.31,17.07 l 18.36,-70.73 c 14.89,-10.45 27.37,-17.2 43.32,-17.08" /><path
         id="path94"
         style="fill:#ffffff;fill-opacity:1;fill-rule:nonzero;stroke:none"
         d="m 2051.4,3045.89 c -14.93,-43.32 -28.55,-88.44 -40.8,-135.47 26.51,2.42 52.01,3.95 75.58,4.72 0.13,6.55 0.25,13.11 0.39,19.64 -16.4,-0.85 -33.21,-1.94 -50.76,-3.54 10.5,40.33 22.21,78.99 34.7,116.58 -6.13,-0.52 -12.51,-1.18 -19.11,-1.93" /><path
         id="path96"
         style="fill:#ffffff;fill-opacity:1;fill-rule:nonzero;stroke:none"
         d="m 1976.57,3032.39 c -24.45,-43.59 -48.03,-88.2 -70.72,-136.75 21.92,3.7 43.84,6.88 65.37,9.55 1.5,6.13 3.19,11.99 4.72,18.06 -14.9,-2.06 -29.89,-4.25 -44.9,-6.78 19.6,41.93 39.92,80.86 60.83,118.79 -5.12,-0.94 -10.16,-1.83 -15.3,-2.87" /><path
         id="path98"
         style="fill:#ffffff;fill-opacity:1;fill-rule:nonzero;stroke:none"
         d="m 1779.94,2867.35 c 25.87,6.63 52.87,12.87 80.54,18.34 2.54,5.81 5.11,11.39 7.66,17.08 -21.49,-4.55 -42.66,-9.39 -63.01,-14.6 28.01,44.79 60.16,86.65 97.87,125.18 -1.86,-0.49 -3.76,-1 -5.57,-1.48 -46.38,-43.71 -84.73,-92.14 -117.49,-144.52" /><path
         id="path100"
         style="fill:#ffffff;fill-opacity:1;fill-rule:nonzero;stroke:none"
         d="m 1967.65,2704.85 c 37.98,3.7 76.22,6.12 115.08,6.88 0.15,8.48 0.3,16.95 0.45,25.43 -30.76,-1.13 -61.25,-2.99 -91.47,-5.93 7.65,46.32 16.51,91.16 26.29,134.97 -6.2,-0.54 -12.41,-1.11 -18.72,-1.79 -12.12,-51.36 -22.57,-104.62 -31.63,-159.56" /><path
         id="path102"
         style="fill:#ffffff;fill-opacity:1;fill-rule:nonzero;stroke:none"
         d="m 1898.09,2849.02 c -4.73,-0.84 -9.46,-1.58 -14.16,-2.45 -21.29,-49.7 -41.57,-103.86 -60.53,-165.29 35.8,7.52 71.88,13.63 108.17,18.35 1.21,7.9 2.64,15.52 3.88,23.37 -29.48,-4.28 -58.86,-9.22 -88.01,-15.33 16.01,51.79 32.99,98.2 50.65,141.35" /><path
         id="path104"
         style="fill:#ffffff;fill-opacity:1;fill-rule:nonzero;stroke:none"
         d="m 1748.2,2812.29 c -29.06,-54.54 -53.53,-112.66 -75.72,-174.09 36.97,12.24 73.95,22.82 111.14,31.99 2.12,7.43 4.33,14.45 6.48,21.7 -31.26,-8.11 -62.44,-17.01 -93.55,-27.31 19.13,53.01 40.17,103.38 64.2,151.3 -4.21,-1.19 -8.46,-2.38 -12.55,-3.59" /><path
         id="path106"
         style="fill:#ffffff;fill-opacity:1;fill-rule:nonzero;stroke:none"
         d="m 1623.18,2291.43 c -15.17,-3.31 -23.84,-22.83 -19.37,-43.47 4.33,-20.63 20.12,-34.79 35.3,-31.47 15.18,3.31 23.82,22.68 19.5,43.44 -4.48,20.66 -20.27,34.81 -35.43,31.5" /><path
         id="path108"
         style="fill:#ffffff;fill-opacity:1;fill-rule:nonzero;stroke:none"
         d="m 1585.33,2591.3 c 8.93,2.3 19.23,12.36 26,26.5 9.18,18.99 8.42,38.37 -1.64,43.22 -9.98,4.83 -25.51,-6.77 -34.69,-25.88 -1.14,-2.3 -2.02,-4.46 -2.79,-6.63 -6.12,-16.69 -4.47,-32.37 4.45,-36.58 2.56,-1.27 5.49,-1.39 8.67,-0.63" /><path
         id="path110"
         style="fill:#ffffff;fill-opacity:1;fill-rule:nonzero;stroke:none"
         d="m 1912.21,1132.55 c 137.01,17.6 270.49,16.39 398.43,-3.79 -7.73,-28.69 -33.72,-51.03 -66.61,-58.09 0.53,3.27 0.94,6.78 1.08,10.43 0.12,23.42 -12.05,42.51 -27.37,42.79 -15,0.12 -27.73,-18.82 -28.01,-42.24 0,-4.61 0.67,-8.94 1.5,-13.28 l -54.31,0.55 c 0.96,4.2 1.52,8.67 1.63,13.27 0.14,23.43 -12.05,42.51 -27.36,42.64 -15.28,0.14 -27.72,-18.68 -28.01,-42.09 0,-4.61 0.67,-9.08 1.51,-13.28 l -54.32,0.54 c 0.97,4.21 1.51,8.66 1.64,13.27 0.14,23.42 -12.05,42.5 -27.36,42.65 -15.29,0.13 -27.74,-18.68 -28.01,-42.1 0,-3.65 0.27,-7.18 0.82,-10.57 -32.36,7.58 -57.8,30.33 -65.25,59.3" /><path
         id="path112"
         style="fill:#ffffff;fill-opacity:1;fill-rule:nonzero;stroke:none"
         d="m 1562.15,1781.69 c 10.14,-58.81 16.93,-118.59 29.73,-176.94 9.53,-43.55 19.68,-86.41 31.71,-129.31 0.19,-0.7 -0.25,0.64 -0.25,0.64 33.91,-61.88 69.91,-122.1 113.98,-177.48 42.92,-53.88 89.07,-104 137.69,-152.74 0.32,-0.32 0.64,-0.65 0.99,-0.98 -63.42,55 -121.9,113.37 -172.75,180.28 -23.81,31.3 -44.71,64.39 -65.29,97.88 -14.24,23.18 -25.18,46.19 -32.15,72.27 -25.01,93.6 -36.18,189.94 -43.66,286.38 4.45,-25.79 2.02,-26.09 0,0" /><path
         id="path114"
         style="fill:#ffffff;fill-opacity:1;fill-rule:nonzero;stroke:none"
         d="m 2662,1781.69 c -10.13,-58.81 -16.94,-118.59 -29.73,-176.94 -9.54,-43.55 -19.67,-86.41 -31.7,-129.31 -0.18,-0.7 0.26,0.64 0.26,0.64 -33.94,-61.88 -69.91,-122.1 -113.98,-177.48 -42.92,-53.88 -89.09,-104 -137.7,-152.74 -0.33,-0.32 -0.65,-0.65 -0.98,-0.98 63.41,55 121.88,113.37 172.75,180.28 23.8,31.3 44.71,64.39 65.27,97.88 14.23,23.18 25.17,46.19 32.17,72.27 25,93.6 36.16,189.94 43.64,286.38 -4.46,-25.79 -2.02,-26.09 0,0" /><path
         id="path116"
         style="fill:#f5f014;fill-opacity:1;fill-rule:nonzero;stroke:none"
         d="m 3843.68,1154.11 -93.34,446.68 -306.66,-173.34 c 0,0 -517.97,-810.001 -1355.65,-783.341 -837.69,26.68 -1224.346,616.671 -1371.018,790.001 l -333.328,166.68 -60,-393.34 c 0,0 633.367,-1076.68 1764.346,-1050.001 1002.03,23.633 1575.65,730 1708.98,916.661 l 46.67,80" /><path
         id="path118"
         style="fill:#100f0d;fill-opacity:1;fill-rule:nonzero;stroke:none"
         d="m 692.52,1159.39 c 23.332,-25.81 29.57,-34.11 35.339,-38.39 2.59,-1.46 5.493,-3.27 9.407,-4.8 6.543,-2.33 14.511,-2.73 21.281,-0.4 -6.887,-11.31 -14.777,-15.9 -22.426,-15.85 l 0.625,-0.7 c 3.969,-7.18 5.207,-15.57 -2.027,-27.18 -12.285,-6.04 -20.852,-4.28 -27.61,0.39 l -0.625,0.7 c -0.722,-7.62 -5.73,-14.69 -17.668,-20.41 2.637,6.19 3.039,14.16 1.379,20.89 -3.593,14.5 -26.738,37.29 -37.422,49.81 l -80.195,-72.51 c -4.531,-4.09 -7.773,-8.92 -10.098,-15.47 -2.324,-6.53 -2.722,-14.5 -1.062,-21.24 -10.988,6.54 -15.234,14.75 -15.188,22.4 l -0.695,-0.63 c -7.183,-3.97 -15.887,-4.86 -27.847,2.06 -5.375,12.25 -3.618,20.82 1.05,27.57 l 0.696,0.64 c -7.618,0.71 -15.352,5.76 -21.075,17.7 6.856,-2.68 14.825,-3.08 21.563,-1.43 6.738,1.67 11.875,4.4 16.086,8.85 l 0.32,-0.35 78.445,70.93 c 5.461,9.37 5.825,23 1.223,30.89 7.039,-5.68 20.625,-6.7 30.508,-2.2 l 59.266,53.59 -0.309,0.35 c 4.852,3.75 8.125,9.24 10.406,15.11 2.363,7.2 2.738,14.51 0.766,21.6 10.945,-7.21 15.547,-15.09 15.484,-22.74 l 0.703,0.63 c 7.192,3.96 15.879,4.85 27.532,-1.72 5.695,-12.61 3.925,-21.17 -0.735,-27.92 l -0.699,-0.63 c 5.625,-0.62 11.473,-3.57 16.441,-10.48 8.196,-9.06 16.426,-17.47 24.309,-26.18 l 29.004,-32.08 -0.313,0.35 c 4.102,-4.53 9.563,-8.47 15.43,-10.76 7.207,-2.36 14.512,-2.73 21.594,-0.76 -7.207,-10.95 -15.09,-15.54 -22.746,-15.49 l 0.633,-0.7 c 3.964,-7.19 5.207,-15.57 -2.032,-27.18 -12.285,-6.04 -20.847,-4.28 -27.605,0.39 l -0.625,0.69 c -0.723,-7.62 -5.735,-14.69 -17.356,-20.76 2.328,6.54 3.039,14.16 1.067,21.25 -1.336,6.39 -4.707,12.21 -8.809,16.75 l 0.32,-0.35 c -60.562,66.28 -60.875,66.63 -61.187,66.98 l -34.523,-31.21" /><path
         id="path120"
         style="fill:none;stroke:#100f0d;stroke-width:10;stroke-linecap:butt;stroke-linejoin:round;stroke-miterlimit:10;stroke-dasharray:none;stroke-opacity:1"
         d="m 692.52,1159.39 c 23.332,-25.81 29.57,-34.11 35.339,-38.39 2.59,-1.46 5.493,-3.27 9.407,-4.8 6.543,-2.33 14.511,-2.73 21.281,-0.4 -6.887,-11.31 -14.777,-15.9 -22.426,-15.85 l 0.625,-0.7 c 3.969,-7.18 5.207,-15.57 -2.027,-27.18 -12.285,-6.04 -20.852,-4.28 -27.61,0.39 l -0.625,0.7 c -0.722,-7.62 -5.73,-14.69 -17.668,-20.41 2.637,6.19 3.039,14.16 1.379,20.89 -3.593,14.5 -26.738,37.29 -37.422,49.81 l -80.195,-72.51 c -4.531,-4.09 -7.773,-8.92 -10.098,-15.47 -2.324,-6.53 -2.722,-14.5 -1.062,-21.24 -10.988,6.54 -15.234,14.75 -15.188,22.4 l -0.695,-0.63 c -7.183,-3.97 -15.887,-4.86 -27.847,2.06 -5.375,12.25 -3.618,20.82 1.05,27.57 l 0.696,0.64 c -7.618,0.71 -15.352,5.76 -21.075,17.7 6.856,-2.68 14.825,-3.08 21.563,-1.43 6.738,1.67 11.875,4.4 16.086,8.85 l 0.32,-0.35 78.445,70.93 c 5.461,9.37 5.825,23 1.223,30.89 7.039,-5.68 20.625,-6.7 30.508,-2.2 l 59.266,53.59 -0.309,0.35 c 4.852,3.75 8.125,9.24 10.406,15.11 2.363,7.2 2.738,14.51 0.766,21.6 10.945,-7.21 15.547,-15.09 15.484,-22.74 l 0.703,0.63 c 7.192,3.96 15.879,4.85 27.532,-1.72 5.695,-12.61 3.925,-21.17 -0.735,-27.92 l -0.699,-0.63 c 5.625,-0.62 11.473,-3.57 16.441,-10.48 8.196,-9.06 16.426,-17.47 24.309,-26.18 l 29.004,-32.08 -0.313,0.35 c 4.102,-4.53 9.563,-8.47 15.43,-10.76 7.207,-2.36 14.512,-2.73 21.594,-0.76 -7.207,-10.95 -15.09,-15.54 -22.746,-15.49 l 0.633,-0.7 c 3.964,-7.19 5.207,-15.57 -2.032,-27.18 -12.285,-6.04 -20.847,-4.28 -27.605,0.39 l -0.625,0.69 c -0.723,-7.62 -5.735,-14.69 -17.356,-20.76 2.328,6.54 3.039,14.16 1.067,21.25 -1.336,6.39 -4.707,12.21 -8.809,16.75 l 0.32,-0.35 c -60.562,66.28 -60.875,66.63 -61.187,66.98 z" /><path
         id="path122"
         style="fill:#100f0d;fill-opacity:1;fill-rule:nonzero;stroke:none"
         d="m 893.809,883.34 c 4.121,9.551 2.402,22.43 -2.61,28.808 7.207,-3.929 20.207,-4.199 28.918,0.614 l 21.621,24.179 c 15.977,17.868 14.453,45.071 -3.418,61.051 -17.507,15.658 -45.066,14.458 -61.047,-3.41 l -21.304,-23.82 c -4.121,-9.551 -2.406,-22.442 2.644,-29.481 -7.246,4.59 -20.554,4.508 -29.582,-0.652 L 790.188,897.18 c -15.668,-17.508 -14.102,-45.379 3.406,-61.051 17.871,-15.969 45.39,-14.098 61.054,3.422 z m 70.605,-36.66 c -7.898,4.55 -21.875,4.429 -30.867,-1.399 l -37.91,-42.39 c -36.028,-40.289 -98.086,-43.422 -138.379,-7.399 -40.285,36.028 -43.742,97.738 -7.715,138.028 l 38.223,42.75 c 4.441,9.89 3.347,23.48 -2.375,30.48 7.91,-4.55 21.218,-4.47 30.566,1.04 l 20.676,23.13 c 36.023,40.29 98.055,44.09 138.347,8.06 40.28,-36.02 43.77,-98.402 7.747,-138.691 L 962.363,877.52 c -4.785,-9.59 -3.347,-23.489 2.051,-30.84" /><path
         id="path124"
         style="fill:none;stroke:#100f0d;stroke-width:10;stroke-linecap:butt;stroke-linejoin:round;stroke-miterlimit:10;stroke-dasharray:none;stroke-opacity:1"
         d="m 893.809,883.34 c 4.121,9.551 2.402,22.43 -2.61,28.808 7.207,-3.929 20.207,-4.199 28.918,0.614 l 21.621,24.179 c 15.977,17.868 14.453,45.071 -3.418,61.051 -17.507,15.658 -45.066,14.458 -61.047,-3.41 l -21.304,-23.82 c -4.121,-9.551 -2.406,-22.442 2.644,-29.481 -7.246,4.59 -20.554,4.508 -29.582,-0.652 L 790.188,897.18 c -15.668,-17.508 -14.102,-45.379 3.406,-61.051 17.871,-15.969 45.39,-14.098 61.054,3.422 z m 70.605,-36.66 c -7.898,4.55 -21.875,4.429 -30.867,-1.399 l -37.91,-42.39 c -36.028,-40.289 -98.086,-43.422 -138.379,-7.399 -40.285,36.028 -43.742,97.738 -7.715,138.028 l 38.223,42.75 c 4.441,9.89 3.347,23.48 -2.375,30.48 7.91,-4.55 21.218,-4.47 30.566,1.04 l 20.676,23.13 c 36.023,40.29 98.055,44.09 138.347,8.06 40.28,-36.02 43.77,-98.402 7.747,-138.691 L 962.363,877.52 c -4.785,-9.59 -3.347,-23.489 2.051,-30.84 z" /><path
         id="path126"
         style="fill:#100f0d;fill-opacity:1;fill-rule:nonzero;stroke:none"
         d="m 1114.16,714.379 c 2.99,9.961 -0.21,22.562 -5.94,28.32 7.62,-3.07 20.56,-1.828 28.66,3.961 l 18.67,26.52 c 13.8,19.609 9.13,46.461 -10.47,60.261 -19.22,13.52 -46.46,9.118 -60.26,-10.48 l -18.39,-26.133 c -2.99,-9.969 0.21,-22.566 6.04,-28.976 -7.72,3.718 -20.94,2.097 -29.31,-4.082 l -33.54,-47.661 c -13.534,-19.218 -8.75,-46.718 10.47,-60.25 19.6,-13.8 46.73,-8.75 60.25,10.473 z m 74.39,-28.231 c -8.38,3.614 -22.25,1.872 -30.5,-4.957 l -32.74,-46.511 c -31.11,-44.211 -92.4,-54.52 -136.611,-23.41 -44.195,31.109 -54.781,92.019 -23.672,136.218 l 33.008,46.903 c 3.265,10.339 0.598,23.711 -5.894,30.007 8.389,-3.609 21.599,-1.976 30.239,4.582 l 17.85,25.372 c 31.12,44.199 92.3,55.168 136.5,24.058 44.2,-31.109 54.9,-92.68 23.79,-136.879 l -17.59,-24.98 c -3.64,-10.082 -0.6,-23.719 5.62,-30.403" /><path
         id="path128"
         style="fill:none;stroke:#100f0d;stroke-width:10;stroke-linecap:butt;stroke-linejoin:round;stroke-miterlimit:10;stroke-dasharray:none;stroke-opacity:1"
         d="m 1114.16,714.379 c 2.99,9.961 -0.21,22.562 -5.94,28.32 7.62,-3.07 20.56,-1.828 28.66,3.961 l 18.67,26.52 c 13.8,19.609 9.13,46.461 -10.47,60.261 -19.22,13.52 -46.46,9.118 -60.26,-10.48 l -18.39,-26.133 c -2.99,-9.969 0.21,-22.566 6.04,-28.976 -7.72,3.718 -20.94,2.097 -29.31,-4.082 l -33.54,-47.661 c -13.534,-19.218 -8.75,-46.718 10.47,-60.25 19.6,-13.8 46.73,-8.75 60.25,10.473 z m 74.39,-28.231 c -8.38,3.614 -22.25,1.872 -30.5,-4.957 l -32.74,-46.511 c -31.11,-44.211 -92.4,-54.52 -136.611,-23.41 -44.195,31.109 -54.781,92.019 -23.672,136.218 l 33.008,46.903 c 3.265,10.339 0.598,23.711 -5.894,30.007 8.389,-3.609 21.599,-1.976 30.239,4.582 l 17.85,25.372 c 31.12,44.199 92.3,55.168 136.5,24.058 44.2,-31.109 54.9,-92.68 23.79,-136.879 l -17.59,-24.98 c -3.64,-10.082 -0.6,-23.719 5.62,-30.403 z" /><path
         id="path130"
         style="fill:#100f0d;fill-opacity:1;fill-rule:nonzero;stroke:none"
         d="m 1283.18,490.039 c -2.86,-5.41 -4.25,-11.051 -4.21,-17.988 0.06,-6.942 2.41,-14.563 6.26,-20.332 -12.96,2.609 -19.35,8.652 -21.92,15.851 l -0.44,-0.828 c -5.4,-6.183 -13.26,-9.992 -26.87,-7.57 -9.24,9.668 -10.52,18.316 -8.44,26.269 l 0.44,0.829 c -7.4,-1.942 -16.4,0.16 -25.86,9.421 7.35,-0.171 14.98,2.18 20.75,6.039 5.76,3.872 9.65,8.192 12.09,13.809 l 0.42,-0.219 49.03,92.66 c 2.56,10.879 -1.96,24.442 -8.97,30.282 8.55,-2.93 22.3,0.949 29.86,9.187 l 27.48,51.942 c -0.41,0.218 0.64,0.199 0.23,0.418 l -1.25,0.652 c -26.59,14.078 -4.16,2.199 -30.33,16.051 -5.41,2.867 -11.05,4.258 -18.4,4.429 -6.95,-0.062 -14.15,-2.621 -19.92,-6.48 2.61,12.969 8.65,19.348 15.85,21.918 l -0.83,0.441 c -6.6,5.621 -10.42,13.489 -7.58,26.879 9.48,9.883 17.92,10.731 26.28,8.442 l 0.83,-0.442 c -1.94,7.403 0.16,16.403 9.42,25.852 -0.17,-7.352 1.77,-14.762 5.62,-20.52 8.56,-11.98 23.15,-17.57 34.79,-23.73 7.92,-3.121 12.22,-8.063 14.61,-13.582 l 0.44,0.832 c 5.4,6.179 13.27,10 26.47,7.801 9.65,-9.903 10.93,-18.551 8.85,-26.493 l -0.44,-0.828 c 5.5,1.34 12,0.559 19.03,-4.23 15.8,-8.352 26.99,-15.34 39.18,-15.41 6.95,0.05 14.57,2.398 20.56,6.679 -2.62,-12.98 -8.87,-19.781 -16.07,-22.351 l 0.83,-0.438 c 6.18,-5.402 10.21,-12.851 7.79,-26.461 -9.89,-9.648 -18.55,-10.929 -26.48,-8.851 l -0.83,0.441 c 1.93,-7.41 0.04,-15.988 -9.21,-25.441 -0.05,6.941 -2.41,14.562 -6.26,20.332 -3.87,5.769 -8.2,9.648 -13.6,12.508 -26.59,14.07 -3.74,1.98 -30.33,16.05 l -1.25,0.661 c -0.41,0.218 0.2,-0.641 -0.21,-0.418 l -27.93,-52.77 c -2.35,-10.461 2.4,-23.602 9.63,-29.023 -8.76,2.511 -22.31,-0.957 -29.63,-8.778 l -49.48,-93.492" /><path
         id="path132"
         style="fill:none;stroke:#100f0d;stroke-width:10;stroke-linecap:butt;stroke-linejoin:round;stroke-miterlimit:10;stroke-dasharray:none;stroke-opacity:1"
         d="m 1283.18,490.039 c -2.86,-5.41 -4.25,-11.051 -4.21,-17.988 0.06,-6.942 2.41,-14.563 6.26,-20.332 -12.96,2.609 -19.35,8.652 -21.92,15.851 l -0.44,-0.828 c -5.4,-6.183 -13.26,-9.992 -26.87,-7.57 -9.24,9.668 -10.52,18.316 -8.44,26.269 l 0.44,0.829 c -7.4,-1.942 -16.4,0.16 -25.86,9.421 7.35,-0.171 14.98,2.18 20.75,6.039 5.76,3.872 9.65,8.192 12.09,13.809 l 0.42,-0.219 49.03,92.66 c 2.56,10.879 -1.96,24.442 -8.97,30.282 8.55,-2.93 22.3,0.949 29.86,9.187 l 27.48,51.942 c -0.41,0.218 0.64,0.199 0.23,0.418 l -1.25,0.652 c -26.59,14.078 -4.16,2.199 -30.33,16.051 -5.41,2.867 -11.05,4.258 -18.4,4.429 -6.95,-0.062 -14.15,-2.621 -19.92,-6.48 2.61,12.969 8.65,19.348 15.85,21.918 l -0.83,0.441 c -6.6,5.621 -10.42,13.489 -7.58,26.879 9.48,9.883 17.92,10.731 26.28,8.442 l 0.83,-0.442 c -1.94,7.403 0.16,16.403 9.42,25.852 -0.17,-7.352 1.77,-14.762 5.62,-20.52 8.56,-11.98 23.15,-17.57 34.79,-23.73 7.92,-3.121 12.22,-8.063 14.61,-13.582 l 0.44,0.832 c 5.4,6.179 13.27,10 26.47,7.801 9.65,-9.903 10.93,-18.551 8.85,-26.493 l -0.44,-0.828 c 5.5,1.34 12,0.559 19.03,-4.23 15.8,-8.352 26.99,-15.34 39.18,-15.41 6.95,0.05 14.57,2.398 20.56,6.679 -2.62,-12.98 -8.87,-19.781 -16.07,-22.351 l 0.83,-0.438 c 6.18,-5.402 10.21,-12.851 7.79,-26.461 -9.89,-9.648 -18.55,-10.929 -26.48,-8.851 l -0.83,0.441 c 1.93,-7.41 0.04,-15.988 -9.21,-25.441 -0.05,6.941 -2.41,14.562 -6.26,20.332 -3.87,5.769 -8.2,9.648 -13.6,12.508 -26.59,14.07 -3.74,1.98 -30.33,16.05 l -1.25,0.661 c -0.41,0.218 0.2,-0.641 -0.21,-0.418 l -27.93,-52.77 c -2.35,-10.461 2.4,-23.602 9.63,-29.023 -8.76,2.511 -22.31,-0.957 -29.63,-8.778 z" /><path
         id="path134"
         style="fill:#100f0d;fill-opacity:1;fill-rule:nonzero;stroke:none"
         d="m 1594.88,582.719 -46.48,16.59 -15.81,-44.258 46.92,-16.762 c 11.95,-4.269 25.77,2.281 30.04,14.231 4.11,11.511 -1.42,23.968 -12.01,29.25 -0.89,0.312 -1.78,0.628 -2.66,0.949 z m -33.1,-95.489 -47.37,16.911 -30.03,-84.102 47.81,-17.078 c 23.02,-8.211 48.85,4.019 57.07,27.039 7.74,21.691 -2.6,45.852 -23.06,55.648 -1.33,0.473 -3.09,1.102 -4.42,1.582 z m -47.62,-134.73 -42.77,15.781 c -4.72,2.18 -8.07,5.367 -9.78,8.981 l -0.31,-0.891 c -4.46,-6.891 -11.7,-11.789 -25.52,-11.351 -10.98,8.41 -13.03,16.628 -12.11,24.789 l 0.31,0.882 c -7.49,-2.812 -16.25,-2.179 -26.93,5.629 6.86,1.039 14.07,4.461 19.67,8.95 5.15,4.652 7.93,9.64 9.99,15.402 l 35.88,100.476 c 0.22,10.403 -5.63,21.981 -13.57,26.313 9.05,-1.231 20.75,3.57 27.16,11.758 l 27.36,76.582 c 2.05,5.75 2.78,11.98 2.02,18.238 -1.33,7.461 -4.91,14.231 -9.55,19.383 13.05,-1.16 20.39,-5.781 24.41,-12.711 l 0.31,0.891 c 4.47,6.886 11.26,11.957 25.07,11.507 10.98,-8.41 13.48,-16.789 12.56,-24.949 l -0.31,-0.879 c 5.24,2.117 11.78,2.278 19.44,-1.449 l 40.72,-14.551 -0.15,-0.441 c 32.4,-14.07 51.15,-48.219 45.81,-82.738 1.9,-8.672 7.37,-17.114 13.53,-20.813 -7.56,1.199 -17.29,-2.309 -23.96,-8.41 -5.85,-9.387 -13.6,-17.109 -22.2,-23.02 12.65,-20.488 17.17,-45.558 12.33,-70.289 1.46,-8.5 6.93,-16.941 13.09,-20.64 -7.55,1.199 -17.29,-2.309 -23.96,-8.41 -23.02,-40.688 -72.94,-60.301 -118.54,-44.02" /><path
         id="path136"
         style="fill:none;stroke:#100f0d;stroke-width:10;stroke-linecap:butt;stroke-linejoin:round;stroke-miterlimit:10;stroke-dasharray:none;stroke-opacity:1"
         d="m 1594.88,582.719 -46.48,16.59 -15.81,-44.258 46.92,-16.762 c 11.95,-4.269 25.77,2.281 30.04,14.231 4.11,11.511 -1.42,23.968 -12.01,29.25 -0.89,0.312 -1.78,0.628 -2.66,0.949 z m -33.1,-95.489 -47.37,16.911 -30.03,-84.102 47.81,-17.078 c 23.02,-8.211 48.85,4.019 57.07,27.039 7.74,21.691 -2.6,45.852 -23.06,55.648 -1.33,0.473 -3.09,1.102 -4.42,1.582 z m -47.62,-134.73 -42.77,15.781 c -4.72,2.18 -8.07,5.367 -9.78,8.981 l -0.31,-0.891 c -4.46,-6.891 -11.7,-11.789 -25.52,-11.351 -10.98,8.41 -13.03,16.628 -12.11,24.789 l 0.31,0.882 c -7.49,-2.812 -16.25,-2.179 -26.93,5.629 6.86,1.039 14.07,4.461 19.67,8.95 5.15,4.652 7.93,9.64 9.99,15.402 l 35.88,100.476 c 0.22,10.403 -5.63,21.981 -13.57,26.313 9.05,-1.231 20.75,3.57 27.16,11.758 l 27.36,76.582 c 2.05,5.75 2.78,11.98 2.02,18.238 -1.33,7.461 -4.91,14.231 -9.55,19.383 13.05,-1.16 20.39,-5.781 24.41,-12.711 l 0.31,0.891 c 4.47,6.886 11.26,11.957 25.07,11.507 10.98,-8.41 13.48,-16.789 12.56,-24.949 l -0.31,-0.879 c 5.24,2.117 11.78,2.278 19.44,-1.449 l 40.72,-14.551 -0.15,-0.441 c 32.4,-14.07 51.15,-48.219 45.81,-82.738 1.9,-8.672 7.37,-17.114 13.53,-20.813 -7.56,1.199 -17.29,-2.309 -23.96,-8.41 -5.85,-9.387 -13.6,-17.109 -22.2,-23.02 12.65,-20.488 17.17,-45.558 12.33,-70.289 1.46,-8.5 6.93,-16.941 13.09,-20.64 -7.55,1.199 -17.29,-2.309 -23.96,-8.41 -23.02,-40.688 -72.94,-60.301 -118.54,-44.02 z" /><path
         id="path138"
         style="fill:#100f0d;fill-opacity:1;fill-rule:nonzero;stroke:none"
         d="m 1822.47,416.621 42.18,-7.18 -8.7,77.778 z m 48.39,-63.07 -72.75,12.379 -23.82,-50.301 c -2.88,-5.707 -4.29,-11.199 -3.93,-17.457 0.83,-6.332 4.05,-12.613 8.6,-16.723 -14.07,-1.41 -21.56,2.242 -24.86,8.051 l -0.61,-0.852 c -5.52,-7.16 -13.66,-12.937 -28.27,-14.738 -10.87,6.141 -12.93,13.649 -11.13,21.449 l 0.63,0.84 c -8.28,-3.828 -17.48,-4.648 -28.44,1.031 7.5,2.059 15.86,6.36 21.52,11.59 6.13,5.16 9.86,10.25 12.73,15.961 l 51.07,106.699 c -0.9,8.739 -5.66,17.18 -11.21,20.981 6.87,-1.641 17.32,0.871 24.52,6.789 l 19.14,39.66 19.23,40.121 -0.46,0.078 c 2.88,5.711 4.37,11.653 3.93,17.45 -0.75,6.812 -3.6,12.531 -8.61,16.722 6.73,0.289 12.37,-0.191 16.46,-1.371 4.26,-0.238 8.35,-1.418 11.44,-2.898 5.73,5.699 13.17,10.16 25.84,11.82 l -0.07,-0.473 0.07,0.473 c 11.42,-5.773 17.43,-12.512 20.49,-19.711 3.87,0.301 8.12,0.051 12.21,-1.121 4.25,-0.25 9.27,-1.578 15.52,-4.07 -5.65,-2.379 -10.23,-6.848 -13.19,-13.02 -2.33,-5.32 -2.9,-11.422 -2.53,-17.68 l 4.87,-44.23 4.65,-42.75 c 4.75,-8.441 13.7,-14.73 21.66,-15.609 -6.97,-1.672 -14.33,-8.532 -18.07,-16.469 l 12.5,-117.051 0.47,-0.082 c 0.36,-6.258 2.2,-12.289 6.27,-19.187 4.07,-6.891 10.08,-13.633 16.93,-18.141 -12.21,-1.731 -21.08,2.16 -27.17,8.437 l 0.31,-1 c -1.34,-7.878 -5.31,-14.359 -17.6,-16.558 -13.66,6.621 -19.42,14.75 -22.26,23.34 l 0.16,0.929 c -5.04,-4.39 -13.31,-5.359 -26.11,0.629 5.64,2.371 10.76,7.231 13.18,13.012 2.87,5.711 3.36,11.352 2.53,17.691 l -5.84,55.36" /><path
         id="path140"
         style="fill:none;stroke:#100f0d;stroke-width:10;stroke-linecap:butt;stroke-linejoin:round;stroke-miterlimit:10;stroke-dasharray:none;stroke-opacity:1"
         d="m 1822.47,416.621 42.18,-7.18 -8.7,77.778 z m 48.39,-63.07 -72.75,12.379 -23.82,-50.301 c -2.88,-5.707 -4.29,-11.199 -3.93,-17.457 0.83,-6.332 4.05,-12.613 8.6,-16.723 -14.07,-1.41 -21.56,2.242 -24.86,8.051 l -0.61,-0.852 c -5.52,-7.16 -13.66,-12.937 -28.27,-14.738 -10.87,6.141 -12.93,13.649 -11.13,21.449 l 0.63,0.84 c -8.28,-3.828 -17.48,-4.648 -28.44,1.031 7.5,2.059 15.86,6.36 21.52,11.59 6.13,5.16 9.86,10.25 12.73,15.961 l 51.07,106.699 c -0.9,8.739 -5.66,17.18 -11.21,20.981 6.87,-1.641 17.32,0.871 24.52,6.789 l 19.14,39.66 19.23,40.121 -0.46,0.078 c 2.88,5.711 4.37,11.653 3.93,17.45 -0.75,6.812 -3.6,12.531 -8.61,16.722 6.73,0.289 12.37,-0.191 16.46,-1.371 4.26,-0.238 8.35,-1.418 11.44,-2.898 5.73,5.699 13.17,10.16 25.84,11.82 l -0.07,-0.473 0.07,0.473 c 11.42,-5.773 17.43,-12.512 20.49,-19.711 3.87,0.301 8.12,0.051 12.21,-1.121 4.25,-0.25 9.27,-1.578 15.52,-4.07 -5.65,-2.379 -10.23,-6.848 -13.19,-13.02 -2.33,-5.32 -2.9,-11.422 -2.53,-17.68 l 4.87,-44.23 4.65,-42.75 c 4.75,-8.441 13.7,-14.73 21.66,-15.609 -6.97,-1.672 -14.33,-8.532 -18.07,-16.469 l 12.5,-117.051 0.47,-0.082 c 0.36,-6.258 2.2,-12.289 6.27,-19.187 4.07,-6.891 10.08,-13.633 16.93,-18.141 -12.21,-1.731 -21.08,2.16 -27.17,8.437 l 0.31,-1 c -1.34,-7.878 -5.31,-14.359 -17.6,-16.558 -13.66,6.621 -19.42,14.75 -22.26,23.34 l 0.16,0.929 c -5.04,-4.39 -13.31,-5.359 -26.11,0.629 5.64,2.371 10.76,7.231 13.18,13.012 2.87,5.711 3.36,11.352 2.53,17.691 z" /><path
         id="path142"
         style="fill:#100f0d;fill-opacity:1;fill-rule:nonzero;stroke:none"
         d="m 2096.2,467.531 0.45,-36.66 c 2.95,-10.312 13.41,-20.051 22.35,-21.351 -8.9,-1.989 -19.12,-11.52 -21.81,-22.36 l 0.98,-79.89 c 31.03,-0.09 60.64,0.269 90.72,0.64 h -0.47 c 6.11,0.07 12.67,1.559 18.27,4.922 6.53,3.367 11.64,9.078 14.85,15.227 3.45,-12.649 1.67,-21.137 -3.42,-26.84 l 0.93,0.019 c 8.02,-1.789 15.13,-6.867 19.06,-19.976 -3.61,-13.211 -10.6,-17.992 -18.57,-19.973 l -0.94,-0.008 c 5.25,-6.051 7.24,-14.492 4.11,-27.222 -3.37,6.07 -8.61,11.652 -15.24,15.332 -5.67,2.75 -12.27,4.078 -18.38,4 l 0.47,0.007 c -54.99,-0.679 -66.74,-0.359 -78.96,-0.507 -8.45,-1.039 -14.58,1.23 -18.86,4.941 l 0.01,-0.941 c -1.78,-8.012 -6.87,-15.129 -19.97,-19.52 -12.75,4.078 -18,11.059 -19.98,19.027 l -0.01,0.942 c -5.58,-5.238 -14.49,-7.231 -27.21,-4.098 6.53,3.367 11.64,8.61 15.32,15.227 2.75,5.679 4.55,11.812 4.01,17.91 l 0.47,0.012 -1.25,100.57 c -2.93,10.309 -13.39,19.578 -22.35,21.348 8.92,1.523 19.14,11.05 21.83,21.89 l -0.45,36.66 -0.54,42.762 c -0.07,6.109 -1.55,12.207 -4.91,17.809 -3.37,6.539 -9.08,11.629 -15.23,14.851 12.65,3.438 21.14,1.668 26.84,-3.429 l -0.02,0.937 c 1.79,8.012 6.87,15.133 19.97,19.52 13.21,-4.071 18,-11.059 19.98,-19.028 l 0.01,-0.941 c 5.58,5.242 14.48,7.23 27.22,4.101 -6.54,-3.371 -11.65,-8.609 -15.32,-15.23 -2.76,-5.672 -4.1,-11.801 -4.02,-17.91 l -0.47,-0.012 0.53,-42.758" /><path
         id="path144"
         style="fill:none;stroke:#100f0d;stroke-width:10;stroke-linecap:butt;stroke-linejoin:round;stroke-miterlimit:10;stroke-dasharray:none;stroke-opacity:1"
         d="m 2096.2,467.531 0.45,-36.66 c 2.95,-10.312 13.41,-20.051 22.35,-21.351 -8.9,-1.989 -19.12,-11.52 -21.81,-22.36 l 0.98,-79.89 c 31.03,-0.09 60.64,0.269 90.72,0.64 h -0.47 c 6.11,0.07 12.67,1.559 18.27,4.922 6.53,3.367 11.64,9.078 14.85,15.227 3.45,-12.649 1.67,-21.137 -3.42,-26.84 l 0.93,0.019 c 8.02,-1.789 15.13,-6.867 19.06,-19.976 -3.61,-13.211 -10.6,-17.992 -18.57,-19.973 l -0.94,-0.008 c 5.25,-6.051 7.24,-14.492 4.11,-27.222 -3.37,6.07 -8.61,11.652 -15.24,15.332 -5.67,2.75 -12.27,4.078 -18.38,4 l 0.47,0.007 c -54.99,-0.679 -66.74,-0.359 -78.96,-0.507 -8.45,-1.039 -14.58,1.23 -18.86,4.941 l 0.01,-0.941 c -1.78,-8.012 -6.87,-15.129 -19.97,-19.52 -12.75,4.078 -18,11.059 -19.98,19.027 l -0.01,0.942 c -5.58,-5.238 -14.49,-7.231 -27.21,-4.098 6.53,3.367 11.64,8.61 15.32,15.227 2.75,5.679 4.55,11.812 4.01,17.91 l 0.47,0.012 -1.25,100.57 c -2.93,10.309 -13.39,19.578 -22.35,21.348 8.92,1.523 19.14,11.05 21.83,21.89 l -0.45,36.66 -0.54,42.762 c -0.07,6.109 -1.55,12.207 -4.91,17.809 -3.37,6.539 -9.08,11.629 -15.23,14.851 12.65,3.438 21.14,1.668 26.84,-3.429 l -0.02,0.937 c 1.79,8.012 6.87,15.133 19.97,19.52 13.21,-4.071 18,-11.059 19.98,-19.028 l 0.01,-0.941 c 5.58,5.242 14.48,7.23 27.22,4.101 -6.54,-3.371 -11.65,-8.609 -15.32,-15.23 -2.76,-5.672 -4.1,-11.801 -4.02,-17.91 l -0.47,-0.012 z" /><path
         id="path146"
         style="fill:#100f0d;fill-opacity:1;fill-rule:nonzero;stroke:none"
         d="m 2339.78,486.48 6.82,-36.019 c 4.69,-9.629 16.69,-17.41 25.72,-17.129 -8.42,-3.512 -16.83,-14.672 -17.59,-25.812 l 14.86,-78.5 c 30.57,5.308 59.66,10.82 89.21,16.421 l -0.47,-0.089 c 6.01,1.136 12.21,3.738 17.14,8.019 5.85,4.461 9.88,10.957 11.97,17.578 5.6,-11.859 5.32,-20.508 1.29,-27.019 l 0.93,0.179 c 8.19,-0.359 16.08,-4.129 22.22,-16.359 -1.24,-13.629 -7.29,-19.559 -14.79,-22.891 l -0.93,-0.179 c 6.22,-5.039 9.64,-13 8.77,-26.078 -4.36,5.398 -10.5,9.968 -17.66,12.437 -6.07,1.723 -12.79,1.891 -18.79,0.75 l 0.46,0.09 c -54.03,-10.231 -65.66,-11.957 -77.66,-14.231 -8.14,-2.5 -14.58,-1.328 -19.43,1.582 l 0.17,-0.921 c -0.36,-8.2 -4.13,-16.09 -16.27,-22.688 -13.25,1.789 -19.64,7.75 -22.98,15.25 l -0.17,0.93 c -4.58,-6.129 -13,-9.641 -26.08,-8.77 5.85,4.457 9.96,10.5 12.44,17.66 1.72,6.071 2.43,12.418 0.83,18.329 l 0.46,0.089 -18.71,98.821 c -4.69,9.629 -16.6,16.941 -25.72,17.121 8.51,3.051 16.92,14.211 17.68,25.347 l -6.82,36.024 -7.96,42.019 c -1.13,6 -3.65,11.739 -7.94,16.668 -4.45,5.852 -10.96,9.879 -17.57,11.981 11.86,5.59 20.52,5.308 27.01,1.281 l -0.17,0.93 c 0.36,8.199 4.13,16.09 16.27,22.691 13.72,-1.711 19.65,-7.762 22.98,-15.262 l 0.17,-0.921 c 4.58,6.121 13.01,9.64 26.09,8.761 -5.85,-4.461 -9.97,-10.5 -12.44,-17.66 -1.72,-6.058 -1.98,-12.328 -0.83,-18.328 l -0.46,-0.094 7.95,-42.008" /><path
         id="path148"
         style="fill:none;stroke:#100f0d;stroke-width:10;stroke-linecap:butt;stroke-linejoin:round;stroke-miterlimit:10;stroke-dasharray:none;stroke-opacity:1"
         d="m 2339.78,486.48 6.82,-36.019 c 4.69,-9.629 16.69,-17.41 25.72,-17.129 -8.42,-3.512 -16.83,-14.672 -17.59,-25.812 l 14.86,-78.5 c 30.57,5.308 59.66,10.82 89.21,16.421 l -0.47,-0.089 c 6.01,1.136 12.21,3.738 17.14,8.019 5.85,4.461 9.88,10.957 11.97,17.578 5.6,-11.859 5.32,-20.508 1.29,-27.019 l 0.93,0.179 c 8.19,-0.359 16.08,-4.129 22.22,-16.359 -1.24,-13.629 -7.29,-19.559 -14.79,-22.891 l -0.93,-0.179 c 6.22,-5.039 9.64,-13 8.77,-26.078 -4.36,5.398 -10.5,9.968 -17.66,12.437 -6.07,1.723 -12.79,1.891 -18.79,0.75 l 0.46,0.09 c -54.03,-10.231 -65.66,-11.957 -77.66,-14.231 -8.14,-2.5 -14.58,-1.328 -19.43,1.582 l 0.17,-0.921 c -0.36,-8.2 -4.13,-16.09 -16.27,-22.688 -13.25,1.789 -19.64,7.75 -22.98,15.25 l -0.17,0.93 c -4.58,-6.129 -13,-9.641 -26.08,-8.77 5.85,4.457 9.96,10.5 12.44,17.66 1.72,6.071 2.43,12.418 0.83,18.329 l 0.46,0.089 -18.71,98.821 c -4.69,9.629 -16.6,16.941 -25.72,17.121 8.51,3.051 16.92,14.211 17.68,25.347 l -6.82,36.024 -7.96,42.019 c -1.13,6 -3.65,11.739 -7.94,16.668 -4.45,5.852 -10.96,9.879 -17.57,11.981 11.86,5.59 20.52,5.308 27.01,1.281 l -0.17,0.93 c 0.36,8.199 4.13,16.09 16.27,22.691 13.72,-1.711 19.65,-7.762 22.98,-15.262 l 0.17,-0.921 c 4.58,6.121 13.01,9.64 26.09,8.761 -5.85,-4.461 -9.97,-10.5 -12.44,-17.66 -1.72,-6.058 -1.98,-12.328 -0.83,-18.328 l -0.46,-0.094 z" /><path
         id="path150"
         style="fill:#100f0d;fill-opacity:1;fill-rule:nonzero;stroke:none"
         d="m 2864.27,526.32 c -6.24,4.309 -13.56,6.532 -20.49,6.84 10.01,8.469 18.46,10.43 26.2,8.41 l -0.41,0.852 c -1.76,8.019 -0.58,16.41 9.46,25.918 13.69,1.879 21.41,-2.238 26.57,-8.629 l 0.4,-0.852 c 2.85,7.11 9.66,12.461 22.53,14.993 -4.09,-5.61 -6.94,-12.723 -7.06,-20.071 -0.29,-4.832 0.47,-9.679 2.08,-14.121 0.41,-0.851 0.6,-2.32 1.01,-3.172 16.69,-46.726 -4.34,-99.578 -49.68,-121.34 -48.73,-23.386 -107.68,-2.679 -131.07,46.051 l -25.02,52.121 c -7.24,7.469 -20,11.25 -28.23,8.86 6.8,5.359 11.84,17.679 10.53,28 l -13.22,27.55 c -23.18,48.301 -2.47,107.25 46.26,130.641 45.34,21.77 99.73,5.117 125.55,-36.711 l 0.19,-0.422 c 0.41,-0.847 1.24,-1.488 1.86,-2.758 2.45,-4.039 4.3,-6.8 9.71,-10.46 4.78,-3.438 13.13,-6.731 19.86,-6.629 -9.82,-8.879 -18.25,-10.852 -25.78,-8.2 l 0.41,-0.851 c 1.96,-8.442 1.17,-18.731 -8.87,-28.238 -13.69,-1.883 -21.8,4.14 -27.15,10.949 l -0.41,0.847 c -3.06,-7.726 -9.88,-13.089 -22.95,-15.187 4.29,5.187 6.96,13.758 7.68,19.848 0.11,6.312 -0.47,9.679 -2.08,14.121 -11.92,17.218 -35.36,23.691 -54.43,14.539 -21.61,-10.367 -30.43,-36.508 -20.27,-57.699 l 13.22,-27.54 c 6.82,-7.679 20,-11.25 28.44,-9.289 -7.01,-4.929 -12.47,-17.461 -10.74,-27.57 L 2793.39,485 c 10.37,-21.621 36.08,-30.648 57.69,-20.27 19.07,9.149 28.88,31.059 22.9,51.129 -2.46,4.039 -5.76,7.661 -9.71,10.461" /><path
         id="path152"
         style="fill:none;stroke:#100f0d;stroke-width:10;stroke-linecap:butt;stroke-linejoin:round;stroke-miterlimit:10;stroke-dasharray:none;stroke-opacity:1"
         d="m 2864.27,526.32 c -6.24,4.309 -13.56,6.532 -20.49,6.84 10.01,8.469 18.46,10.43 26.2,8.41 l -0.41,0.852 c -1.76,8.019 -0.58,16.41 9.46,25.918 13.69,1.879 21.41,-2.238 26.57,-8.629 l 0.4,-0.852 c 2.85,7.11 9.66,12.461 22.53,14.993 -4.09,-5.61 -6.94,-12.723 -7.06,-20.071 -0.29,-4.832 0.47,-9.679 2.08,-14.121 0.41,-0.851 0.6,-2.32 1.01,-3.172 16.69,-46.726 -4.34,-99.578 -49.68,-121.34 -48.73,-23.386 -107.68,-2.679 -131.07,46.051 l -25.02,52.121 c -7.24,7.469 -20,11.25 -28.23,8.86 6.8,5.359 11.84,17.679 10.53,28 l -13.22,27.55 c -23.18,48.301 -2.47,107.25 46.26,130.641 45.34,21.77 99.73,5.117 125.55,-36.711 l 0.19,-0.422 c 0.41,-0.847 1.24,-1.488 1.86,-2.758 2.45,-4.039 4.3,-6.8 9.71,-10.46 4.78,-3.438 13.13,-6.731 19.86,-6.629 -9.82,-8.879 -18.25,-10.852 -25.78,-8.2 l 0.41,-0.851 c 1.96,-8.442 1.17,-18.731 -8.87,-28.238 -13.69,-1.883 -21.8,4.14 -27.15,10.949 l -0.41,0.847 c -3.06,-7.726 -9.88,-13.089 -22.95,-15.187 4.29,5.187 6.96,13.758 7.68,19.848 0.11,6.312 -0.47,9.679 -2.08,14.121 -11.92,17.218 -35.36,23.691 -54.43,14.539 -21.61,-10.367 -30.43,-36.508 -20.27,-57.699 l 13.22,-27.54 c 6.82,-7.679 20,-11.25 28.44,-9.289 -7.01,-4.929 -12.47,-17.461 -10.74,-27.57 L 2793.39,485 c 10.37,-21.621 36.08,-30.648 57.69,-20.27 19.07,9.149 28.88,31.059 22.9,51.129 -2.46,4.039 -5.76,7.661 -9.71,10.461 z" /><path
         id="path154"
         style="fill:#100f0d;fill-opacity:1;fill-rule:nonzero;stroke:none"
         d="m 2967.56,734.172 19.9,-30.793 c 7.98,-7.149 22.02,-9.828 30.28,-6.168 -6.47,-6.43 -10.05,-19.93 -6.55,-30.539 l 43.37,-67.113 c 26.31,16.441 51.17,32.523 76.44,48.839 l -0.39,-0.25 c 5.12,3.321 9.89,8.071 12.84,13.903 3.74,6.328 5.02,13.871 4.47,20.789 9.65,-8.871 12.66,-16.988 11.38,-24.539 l 0.79,0.508 c 7.73,2.761 16.46,2.25 26.76,-6.77 3.99,-13.09 0.61,-20.867 -5.07,-26.777 l -0.79,-0.512 c 7.65,-2.328 13.82,-8.41 17.96,-20.859 -6.09,3.347 -13.49,5.281 -21.06,4.871 -6.27,-0.703 -12.56,-3.09 -17.69,-6.403 l 0.4,0.25 c -46.2,-29.847 -56.31,-35.828 -66.58,-42.461 -6.6,-5.378 -13,-6.726 -18.59,-5.867 l 0.51,-0.781 c 2.75,-7.738 2.23,-16.461 -6.52,-27.16 -12.96,-3.34 -21.12,-0.219 -27.04,5.469 l -0.5,0.793 c -1.94,-7.403 -8.42,-13.832 -20.86,-17.961 3.74,6.339 5.28,13.488 4.86,21.05 -0.69,6.27 -2.43,12.43 -6.14,17.301 l 0.4,0.258 -54.6,84.469 c -7.98,7.152 -21.77,9.441 -30.3,6.172 6.74,6.031 10.33,19.539 6.82,30.148 l -19.89,30.793 -23.22,35.918 c -3.32,5.129 -7.82,9.5 -13.65,12.449 -6.33,3.742 -13.87,5.02 -20.79,4.473 8.87,9.648 16.99,12.66 24.54,11.379 l -0.51,0.789 c -2.76,7.73 -2.24,16.461 6.52,27.16 13.35,3.59 21.12,0.219 27.03,-5.48 l 0.52,-0.778 c 1.92,7.399 8.41,13.828 20.85,17.949 -3.74,-6.332 -5.28,-13.48 -4.87,-21.05 0.7,-6.27 2.84,-12.172 6.15,-17.301 l -0.39,-0.25 23.21,-35.918" /><path
         id="path156"
         style="fill:none;stroke:#100f0d;stroke-width:10;stroke-linecap:butt;stroke-linejoin:round;stroke-miterlimit:10;stroke-dasharray:none;stroke-opacity:1"
         d="m 2967.56,734.172 19.9,-30.793 c 7.98,-7.149 22.02,-9.828 30.28,-6.168 -6.47,-6.43 -10.05,-19.93 -6.55,-30.539 l 43.37,-67.113 c 26.31,16.441 51.17,32.523 76.44,48.839 l -0.39,-0.25 c 5.12,3.321 9.89,8.071 12.84,13.903 3.74,6.328 5.02,13.871 4.47,20.789 9.65,-8.871 12.66,-16.988 11.38,-24.539 l 0.79,0.508 c 7.73,2.761 16.46,2.25 26.76,-6.77 3.99,-13.09 0.61,-20.867 -5.07,-26.777 l -0.79,-0.512 c 7.65,-2.328 13.82,-8.41 17.96,-20.859 -6.09,3.347 -13.49,5.281 -21.06,4.871 -6.27,-0.703 -12.56,-3.09 -17.69,-6.403 l 0.4,0.25 c -46.2,-29.847 -56.31,-35.828 -66.58,-42.461 -6.6,-5.378 -13,-6.726 -18.59,-5.867 l 0.51,-0.781 c 2.75,-7.738 2.23,-16.461 -6.52,-27.16 -12.96,-3.34 -21.12,-0.219 -27.04,5.469 l -0.5,0.793 c -1.94,-7.403 -8.42,-13.832 -20.86,-17.961 3.74,6.339 5.28,13.488 4.86,21.05 -0.69,6.27 -2.43,12.43 -6.14,17.301 l 0.4,0.258 -54.6,84.469 c -7.98,7.152 -21.77,9.441 -30.3,6.172 6.74,6.031 10.33,19.539 6.82,30.148 l -19.89,30.793 -23.22,35.918 c -3.32,5.129 -7.82,9.5 -13.65,12.449 -6.33,3.742 -13.87,5.02 -20.79,4.473 8.87,9.648 16.99,12.66 24.54,11.379 l -0.51,0.789 c -2.76,7.73 -2.24,16.461 6.52,27.16 13.35,3.59 21.12,0.219 27.03,-5.48 l 0.52,-0.778 c 1.92,7.399 8.41,13.828 20.85,17.949 -3.74,-6.332 -5.28,-13.48 -4.87,-21.05 0.7,-6.27 2.84,-12.172 6.15,-17.301 l -0.39,-0.25 z" /><path
         id="path158"
         style="fill:#100f0d;fill-opacity:1;fill-rule:nonzero;stroke:none"
         d="m 3283.98,867.051 c -8.41,5.879 -22.36,6.648 -30.11,2.781 5.67,6.43 7.76,20.238 3.43,30.039 -16.9,20.789 -33.5,41.211 -50.41,62 -3.84,4.738 -8.79,8.59 -14.54,11.188 -7.07,2.742 -14.7,3.191 -21.52,1.89 7.77,10.551 15.52,14.43 23.53,14.27 l -0.6,0.742 c -3.58,7.379 -4.38,15.819 3.16,27.399 12.88,5.02 21.34,2.81 27.84,-2.2 l 0.59,-0.74 c 1.11,7.57 6.5,14.37 18.42,19.82 -2.67,-6.4 -3.79,-13.98 -2.19,-21.15 1.01,-6.46 3.77,-12.09 7.62,-16.828 16.9,-20.793 33.8,-41.571 50.7,-62.364 8.78,-5.578 22.37,-6.648 30.19,-2.109 -5.74,-7.09 -7.78,-20.25 -4.1,-29.98 12.53,-14.661 24.67,-29.61 36.83,-44.559 34.09,-41.941 27.69,-104.09 -14.26,-138.18 -41.93,-34.101 -104.08,-27.691 -138.18,14.25 -12.15,14.95 -24.01,29.539 -36.17,44.489 -8.71,6.25 -22,6.953 -30.12,2.781 6.05,6.73 7.78,20.242 3.8,30.34 -16.6,20.422 -33.5,41.211 -50.4,62 -3.85,4.742 -8.8,8.59 -14.91,10.89 -7.07,2.731 -14.34,3.489 -21.15,2.18 7.4,10.27 15.51,14.441 23.15,13.988 l -0.6,0.723 c -3.57,7.391 -4.01,16.117 3.54,27.699 12.51,4.731 20.97,2.52 27.47,-2.5 l 0.59,-0.719 c 1.12,7.559 6.86,14.661 18.41,19.809 -2.66,-6.41 -3.41,-13.68 -2.17,-21.16 1,-6.449 3.76,-12.078 7.61,-16.82 16.9,-20.782 33.5,-41.211 50.77,-61.7 8.71,-6.238 22.3,-7.308 30.11,-2.769 -5.37,-6.801 -7.76,-20.242 -3.43,-30.051 12.15,-14.949 24.02,-29.539 36.17,-44.488 15.12,-18.602 42.23,-21.403 60.83,-6.282 18.6,15.129 21.39,42.231 6.28,60.829 -11.87,14.589 -24.02,29.543 -36.18,44.492" /><path
         id="path160"
         style="fill:none;stroke:#100f0d;stroke-width:10;stroke-linecap:butt;stroke-linejoin:round;stroke-miterlimit:10;stroke-dasharray:none;stroke-opacity:1"
         d="m 3283.98,867.051 c -8.41,5.879 -22.36,6.648 -30.11,2.781 5.67,6.43 7.76,20.238 3.43,30.039 -16.9,20.789 -33.5,41.211 -50.41,62 -3.84,4.738 -8.79,8.59 -14.54,11.188 -7.07,2.742 -14.7,3.191 -21.52,1.89 7.77,10.551 15.52,14.43 23.53,14.27 l -0.6,0.742 c -3.58,7.379 -4.38,15.819 3.16,27.399 12.88,5.02 21.34,2.81 27.84,-2.2 l 0.59,-0.74 c 1.11,7.57 6.5,14.37 18.42,19.82 -2.67,-6.4 -3.79,-13.98 -2.19,-21.15 1.01,-6.46 3.77,-12.09 7.62,-16.828 16.9,-20.793 33.8,-41.571 50.7,-62.364 8.78,-5.578 22.37,-6.648 30.19,-2.109 -5.74,-7.09 -7.78,-20.25 -4.1,-29.98 12.53,-14.661 24.67,-29.61 36.83,-44.559 34.09,-41.941 27.69,-104.09 -14.26,-138.18 -41.93,-34.101 -104.08,-27.691 -138.18,14.25 -12.15,14.95 -24.01,29.539 -36.17,44.489 -8.71,6.25 -22,6.953 -30.12,2.781 6.05,6.73 7.78,20.242 3.8,30.34 -16.6,20.422 -33.5,41.211 -50.4,62 -3.85,4.742 -8.8,8.59 -14.91,10.89 -7.07,2.731 -14.34,3.489 -21.15,2.18 7.4,10.27 15.51,14.441 23.15,13.988 l -0.6,0.723 c -3.57,7.391 -4.01,16.117 3.54,27.699 12.51,4.731 20.97,2.52 27.47,-2.5 l 0.59,-0.719 c 1.12,7.559 6.86,14.661 18.41,19.809 -2.66,-6.41 -3.41,-13.68 -2.17,-21.16 1,-6.449 3.76,-12.078 7.61,-16.82 16.9,-20.782 33.5,-41.211 50.77,-61.7 8.71,-6.238 22.3,-7.308 30.11,-2.769 -5.37,-6.801 -7.76,-20.242 -3.43,-30.051 12.15,-14.949 24.02,-29.539 36.17,-44.488 15.12,-18.602 42.23,-21.403 60.83,-6.282 18.6,15.129 21.39,42.231 6.28,60.829 -11.87,14.589 -24.02,29.543 -36.18,44.492 z" /><path
         id="path162"
         style="fill:#100f0d;fill-opacity:1;fill-rule:nonzero;stroke:none"
         d="m 3457.91,1029.83 -35.57,-35.568 63.15,-63.141 35.9,35.891 c 17.27,17.277 17.27,45.858 0,63.148 -16.29,16.28 -42.54,17.28 -60.16,2.99 -1,-1 -2.32,-2.33 -3.32,-3.32 z m -72.12,70.78 -34.89,-34.9 33.23,-33.23 35.23,35.23 c 8.97,8.97 8.97,24.26 0,33.23 -8.65,8.65 -22.27,8.98 -31.58,1.66 -0.66,-0.66 -1.32,-1.32 -1.99,-1.99 z m 173.48,-171.481 -32.57,-31.91 c -3.99,-3.321 -8.31,-4.981 -12.3,-4.981 l 0.67,-0.668 c 4.32,-6.98 5.65,-15.621 -0.67,-27.922 -12.29,-6.308 -20.6,-4.648 -27.58,-0.328 l -0.67,0.668 c -0.66,-7.976 -4.98,-15.617 -16.61,-21.937 1.99,6.648 1.99,14.629 0.33,21.597 -1.99,6.653 -5.32,11.301 -9.64,15.622 l -75.44,75.441 c -9.3,4.66 -22.26,4.32 -29.58,-0.992 5,7.64 5.66,20.269 1,29.582 l -57.49,57.489 c -4.33,4.32 -9.64,7.64 -15.62,9.64 -7.31,1.99 -14.96,1.66 -21.61,-0.34 6.65,11.31 13.97,15.96 21.94,16.62 l -0.67,0.67 c -4.31,6.98 -5.97,15.29 0.34,27.58 12.29,6.32 20.93,4.99 27.92,0.67 l 0.66,-0.67 c 0.33,5.65 2.99,11.63 9.64,16.95 l 30.57,30.58 0.34,-0.34 c 26.58,23.27 65.47,25.6 94.38,5.99 8.64,-2 18.6,-0.67 24.59,3.32 -4.32,-6.32 -5.31,-16.62 -2.66,-25.26 5.98,-9.3 9.64,-19.61 11.3,-29.91 23.93,2.66 48.52,-3.99 68.79,-18.95 8.31,-2.32 18.28,-0.99 24.27,3 -4.33,-6.32 -5.32,-16.62 -2.67,-25.26 26.93,-38.22 23.28,-91.721 -10.96,-125.951" /><path
         id="path164"
         style="fill:none;stroke:#100f0d;stroke-width:10;stroke-linecap:butt;stroke-linejoin:round;stroke-miterlimit:10;stroke-dasharray:none;stroke-opacity:1"
         d="m 3457.91,1029.83 -35.57,-35.568 63.15,-63.141 35.9,35.891 c 17.27,17.277 17.27,45.858 0,63.148 -16.29,16.28 -42.54,17.28 -60.16,2.99 -1,-1 -2.32,-2.33 -3.32,-3.32 z m -72.12,70.78 -34.89,-34.9 33.23,-33.23 35.23,35.23 c 8.97,8.97 8.97,24.26 0,33.23 -8.65,8.65 -22.27,8.98 -31.58,1.66 -0.66,-0.66 -1.32,-1.32 -1.99,-1.99 z m 173.48,-171.481 -32.57,-31.91 c -3.99,-3.321 -8.31,-4.981 -12.3,-4.981 l 0.67,-0.668 c 4.32,-6.98 5.65,-15.621 -0.67,-27.922 -12.29,-6.308 -20.6,-4.648 -27.58,-0.328 l -0.67,0.668 c -0.66,-7.976 -4.98,-15.617 -16.61,-21.937 1.99,6.648 1.99,14.629 0.33,21.597 -1.99,6.653 -5.32,11.301 -9.64,15.622 l -75.44,75.441 c -9.3,4.66 -22.26,4.32 -29.58,-0.992 5,7.64 5.66,20.269 1,29.582 l -57.49,57.489 c -4.33,4.32 -9.64,7.64 -15.62,9.64 -7.31,1.99 -14.96,1.66 -21.61,-0.34 6.65,11.31 13.97,15.96 21.94,16.62 l -0.67,0.67 c -4.31,6.98 -5.97,15.29 0.34,27.58 12.29,6.32 20.93,4.99 27.92,0.67 l 0.66,-0.67 c 0.33,5.65 2.99,11.63 9.64,16.95 l 30.57,30.58 0.34,-0.34 c 26.58,23.27 65.47,25.6 94.38,5.99 8.64,-2 18.6,-0.67 24.59,3.32 -4.32,-6.32 -5.31,-16.62 -2.66,-25.26 5.98,-9.3 9.64,-19.61 11.3,-29.91 23.93,2.66 48.52,-3.99 68.79,-18.95 8.31,-2.32 18.28,-0.99 24.27,3 -4.33,-6.32 -5.32,-16.62 -2.67,-25.26 26.93,-38.22 23.28,-91.721 -10.96,-125.951 z" /><path
         id="path166"
         style="fill:none;stroke:#f5f014;stroke-width:50;stroke-linecap:butt;stroke-linejoin:miter;stroke-miterlimit:10;stroke-dasharray:none;stroke-opacity:1"
         d="M 537.012,2196.42 844.285,2600.26 1160.34,2219.83 861.848,1818.9 Z" /><path
         id="path168"
         style="fill:#f5f014;fill-opacity:1;fill-rule:nonzero;stroke:none"
         d="m 3720.33,2143.58 c -6.23,-91.99 11.24,-115 -55.03,-115 l -434.97,-5 c -66.27,0 -120,-2.94 -120,63.33 v 261.67 c 0,66.27 53.73,55 120,55 h 370 c 120,0.73 120,0.73 120,-83.33 v -176.67" /><path
         id="path170"
         style="fill:#100f0d;fill-opacity:1;fill-rule:nonzero;stroke:none"
         d="m 3370.3,2253.88 c -0.49,3.36 -1.2,5.64 -2.16,6.84 -0.96,1.2 -2.4,1.8 -4.32,1.8 h -118.8 v -32.04 h 79.92 c 1.92,0 3.36,0.54 4.32,1.62 0.95,1.08 1.68,3.3 2.17,6.66 h 4.31 v -60.48 h -4.31 c -0.49,4.08 -1.22,6.72 -2.17,7.92 -0.96,1.2 -2.4,1.8 -4.32,1.8 h -79.92 v -60.12 c 0,-1.68 0.55,-3.06 1.62,-4.14 1.08,-1.08 3.9,-1.86 8.46,-2.34 v -4.32 h -75.6 v 4.32 c 4.56,0.48 7.38,1.26 8.46,2.34 1.08,1.08 1.62,2.46 1.62,4.14 v 167.76 c 0,1.68 -0.54,3.06 -1.62,4.14 -1.08,1.08 -3.9,1.86 -8.46,2.34 v 4.32 h 184.32 c 1.92,0 3.36,0.66 4.32,1.98 0.96,1.32 1.67,4.02 2.16,8.1 h 4.32 v -62.64 h -4.32" /><path
         id="path172"
         style="fill:#100f0d;fill-opacity:1;fill-rule:nonzero;stroke:none"
         d="m 3605.38,2239.12 c 0.24,0.72 0.41,1.5 0.54,2.34 0.12,0.84 0.18,1.86 0.18,3.06 0,1.92 -1.62,3.84 -4.86,5.76 -3.24,1.92 -7.56,3.66 -12.96,5.22 -5.4,1.56 -11.58,2.88 -18.54,3.96 -6.97,1.08 -14.28,1.62 -21.96,1.62 -7.2,0 -14.76,-0.84 -22.68,-2.52 -7.92,-1.68 -15.18,-4.44 -21.78,-8.28 -6.6,-3.84 -12,-8.94 -16.2,-15.3 -4.2,-6.36 -6.3,-14.1 -6.3,-23.22 0,-9.12 2.1,-16.86 6.3,-23.22 4.2,-6.36 9.6,-11.46 16.2,-15.3 6.6,-3.84 13.86,-6.6 21.78,-8.28 7.92,-1.68 15.48,-2.52 22.68,-2.52 3.12,0 8.04,0.54 14.76,1.62 6.72,1.08 13.44,2.58 20.16,4.5 6.71,1.92 12.65,4.08 17.82,6.48 5.15,2.4 7.74,4.92 7.74,7.56 0,1.2 -0.24,2.16 -0.72,2.88 -0.49,0.72 -0.96,1.56 -1.44,2.52 l 3.96,2.52 37.08,-56.52 -4.32,-2.52 c -0.49,1.2 -1.14,1.98 -1.98,2.34 -0.84,0.36 -1.87,0.54 -3.06,0.54 -1.69,0 -5.04,-1.02 -10.08,-3.06 -5.04,-2.04 -11.59,-4.2 -19.62,-6.48 -8.04,-2.28 -17.46,-4.32 -28.27,-6.12 -10.79,-1.8 -22.92,-2.7 -36.35,-2.7 -14.4,0 -28.68,1.86 -42.84,5.58 -14.16,3.72 -26.88,9.6 -38.16,17.64 -11.29,8.04 -20.4,18.12 -27.36,30.24 -6.97,12.12 -10.44,26.22 -10.44,42.3 0,16.08 3.47,30.18 10.44,42.3 6.96,12.12 16.07,22.2 27.36,30.24 11.28,8.04 24,14.1 38.16,18.18 14.16,4.08 28.44,6.12 42.84,6.12 14.4,0 26.82,-0.78 37.26,-2.34 10.44,-1.56 19.26,-3.3 26.46,-5.22 6.96,-1.92 12.36,-3.54 16.2,-4.86 3.84,-1.32 6.72,-1.98 8.64,-1.98 2.16,0 3.96,0.96 5.4,2.88 l 3.96,-1.08 -32.41,-59.4 -3.59,2.52" /><path
         id="path174"
         style="fill:#f5f014;fill-opacity:1;fill-rule:nonzero;stroke:none"
         d="m 743.535,2337.81 c -8.269,-3.19 -15.937,-7.67 -23.008,-13.4 -7.058,-5.73 -11.535,-13.27 -13.398,-22.6 10.398,0 19.266,-2.46 26.601,-7.4 7.333,-4.94 11.004,-13 11.004,-24.2 0,-9.34 -3.339,-16.66 -10,-22 -6.668,-5.33 -14.402,-8 -23.203,-8 -11.734,0 -20.34,3.94 -25.801,11.8 -5.464,7.86 -8.203,17.14 -8.203,27.81 0,9.59 1.938,18.13 5.801,25.59 3.867,7.47 8.867,14.13 15,20 6.137,5.87 13.203,10.87 21.203,15 7.996,4.13 15.996,7.54 24.004,10.2 v -12.8" /><path
         id="path176"
         style="fill:#f5f014;fill-opacity:1;fill-rule:nonzero;stroke:none"
         d="m 762.766,2252.45 h 3.23 c 0,-0.9 0.137,-2.2 0.41,-3.9 0.266,-1.71 1.114,-2.56 2.559,-2.56 0.351,0 1.348,0.3 2.961,0.94 1.621,0.62 3.418,1.3 5.387,2.02 1.972,0.71 3.871,1.44 5.667,2.15 1.786,0.72 2.958,1.17 3.497,1.35 v 8.63 c 0,1.97 -0.625,3.23 -1.887,3.77 -1.262,0.54 -2.422,0.9 -3.496,1.08 v 3.23 h 52.812 v -3.23 c -1.98,-0.18 -3.633,-0.54 -4.98,-1.08 -1.348,-0.54 -2.024,-1.8 -2.024,-3.77 V 2135.5 c 0,-1.98 0.676,-3.24 2.024,-3.78 1.347,-0.53 2.82,-0.9 4.441,-1.07 v -3.24 h -53.621 v 3.24 c 1.785,0.17 3.359,0.54 4.707,1.07 1.348,0.54 2.024,1.8 2.024,3.78 v 85.69 c -4.497,-1.08 -8.125,-1.98 -10.911,-2.69 -2.793,-0.72 -4.851,-1.48 -6.203,-2.29 -1.343,-0.81 -2.246,-1.76 -2.691,-2.83 -0.449,-1.08 -0.676,-2.52 -0.676,-4.31 h -3.23 v 43.38" /><path
         id="path178"
         style="fill:#f5f014;fill-opacity:1;fill-rule:nonzero;stroke:none"
         d="m 944.934,2242.21 h -0.539 l -51.204,-62.79 h 51.743 z m -84.348,-62.52 c 3.769,4.67 8.035,9.93 12.805,15.77 4.754,5.83 9.605,11.86 14.547,18.05 4.933,6.2 9.789,12.22 14.55,18.06 4.758,5.83 8.989,11.09 12.668,15.76 3.684,4.67 6.641,8.49 8.887,11.46 2.246,2.96 3.367,4.62 3.367,4.98 0,0.9 -0.445,1.44 -1.347,1.62 -0.895,0.18 -2.059,0.36 -3.497,0.54 v 3.23 h 64.133 v -3.23 c -1.797,-0.18 -3.191,-0.36 -4.172,-0.54 -0.996,-0.18 -1.48,-0.72 -1.48,-1.62 v -84.35 h 16.973 c 1.082,0 2.16,0.36 3.23,1.08 1.08,0.72 1.62,2.33 1.62,4.85 h 3.23 v -39.07 h -3.23 c 0,2.51 -0.54,4.18 -1.62,4.98 -1.07,0.81 -2.148,1.22 -3.23,1.22 h -16.973 v -16.98 c 0,-1.98 0.672,-3.24 2.019,-3.78 1.348,-0.53 2.735,-0.9 4.18,-1.07 v -3.24 h -47.969 v 3.24 c 1.25,0.17 2.508,0.54 3.77,1.07 1.25,0.54 1.887,1.8 1.887,3.78 v 16.98 h -76.262 c -1.082,0 -2.156,-0.41 -3.234,-1.22 -1.083,-0.8 -1.622,-2.47 -1.622,-4.98 h -3.23 v 33.41" /><path
         id="path180"
         style="fill:#f5f014;fill-opacity:1;fill-rule:nonzero;stroke:none"
         d="m 2120.33,3171.38 v -50 50 c -100,-0.01 -171.82,-17.03 -174.76,-17.76 -204.29,-49.25 -354.94,-153.75 -446.37,-310.54 -157.91,-270.75 -89.39,-608.56 -69.46,-689.6 -7.17,-17.34 -18.88,-46.32 -28.69,-75.57 -12.19,-36.39 -9.57,-62.33 -6.73,-89.78 1.73,-16.76 3.67,-35.74 3.39,-63.62 -0.83,-81.89 63.38,-148.18 90.74,-172.66 l 35.2,-91.25 c 27.54,-298.16 166.82,-416.37 204.12,-442.95 l 112.45,-142.05 9.15,-11.55 13.94,-4.75 98.04,-33.38 5.75,-1.96 6.05,-0.52 c 32.22,-2.79 65.2,-4.2 98.01,-4.2 132.71,0 223.85,22.73 227.67,23.7 l 13.44,3.41 9.75,9.84 c 7.2,7.25 177.36,178.89 278.97,297.28 94.52,110.13 108.66,329.12 110.69,403.6 99.39,80.38 149.73,164.4 149.67,249.99 -0.05,77.77 -42.59,133.89 -69.46,161.58 l 26,396.06 0.46,7.03 -1.49,6.89 c -48.83,224.18 -151.63,388.16 -307.86,487.39 -137.11,87.09 -288.67,105.37 -388.67,105.37 z m -2.39,-50 c 205.46,0.01 546.01,-75.68 650.06,-553.4 l -27.56,-419.84 c 0,0 203.23,-153.34 -78.44,-366.45 0,0 2.65,-277.28 -98.95,-395.65 -101.6,-118.38 -276.52,-294.63 -276.52,-294.63 0,0 -87.39,-22.17 -215.37,-22.17 -29.3,0 -60.7,1.16 -93.7,4.01 l -98.04,33.38 -117.25,148.11 c 0,0 -161.86,95.75 -189.35,417.3 l -42.31,109.65 c 0,0 -83.63,65.96 -82.84,142.31 0.78,76.34 -14,94.31 0.65,138.02 14.65,43.71 33.79,87.66 33.79,87.66 0,0 -224.79,786.86 474.22,955.39 0,0 66.28,16.3 161.61,16.31" /></g></g></svg>